<svg width="19" height="18" viewBox="0 0 19 18" xmlns="http://www.w3.org/2000/svg">
<path d="M10.302 17.7502L18.7415 9.60224C19.0862 9.26924 19.0862 8.73076 18.7415 8.39776L10.302 0.249754C9.95736 -0.0832513 9.4001 -0.0832513 9.05548 0.249754L8.54954 0.738634C8.20492 1.07164 8.20492 1.62429 8.56421 1.95021L14.8334 7.79551H0.879885C0.395948 7.79551 0 8.17811 0 8.64574V9.35426C0 9.82189 0.395948 10.2045 0.879885 10.2045H14.8334L8.55688 16.0498C8.20492 16.3828 8.19759 16.9284 8.54221 17.2614L9.04814 17.7502C9.4001 18.0833 9.95736 18.0833 10.302 17.7502Z" fill="currentColor"/>
</svg>
