<svg width="22" height="22" viewBox="0 0 22 22" xmlns="http://www.w3.org/2000/svg">
<path d="M21.6562 11C21.6562 5.11328 16.8867 0.34375 11 0.34375C5.11328 0.34375 0.34375 5.11328 0.34375 11C0.34375 16.8867 5.11328 21.6562 11 21.6562C16.8867 21.6562 21.6562 16.8867 21.6562 11ZM11 20.2812C5.89961 20.2812 1.71875 16.152 1.71875 11C1.71875 5.89961 5.84805 1.71875 11 1.71875C16.1004 1.71875 20.2812 5.84805 20.2812 11C20.2812 16.1004 16.152 20.2812 11 20.2812ZM10.4629 16.3066L5.51719 11.3652C5.31523 11.1633 5.31523 10.8367 5.51719 10.6348L10.4629 5.69336C10.6648 5.49141 10.9914 5.49141 11.1934 5.69336L11.4898 5.98984C11.6918 6.1918 11.6918 6.52695 11.4813 6.72461L7.80742 10.2695H15.9844C16.268 10.2695 16.5 10.5016 16.5 10.7852V11.2148C16.5 11.4984 16.268 11.7305 15.9844 11.7305H7.80742L11.4855 15.2754C11.6918 15.4773 11.6961 15.8082 11.4941 16.0102L11.1977 16.3066C10.9914 16.5086 10.6648 16.5086 10.4629 16.3066Z" fill="currentColor"/>
</svg>
