<svg width="26" height="26" viewBox="0 0 26 26" xmlns="http://www.w3.org/2000/svg">
<path d="M6.5 24.375C6.38056 24.375 6.26031 24.3482 6.14738 24.2946C5.86706 24.1589 5.6875 23.8753 5.6875 23.5625V19.5H3.25C1.90612 19.5 0.8125 18.4064 0.8125 17.0625V4.0625C0.8125 2.71862 1.90612 1.625 3.25 1.625H22.75C24.0939 1.625 25.1875 2.71862 25.1875 4.0625V17.0625C25.1875 18.4064 24.0939 19.5 22.75 19.5H12.8789L7.00781 24.1971C6.86075 24.3149 6.68119 24.375 6.5 24.375ZM3.25 3.25C2.8015 3.25 2.4375 3.61481 2.4375 4.0625V17.0625C2.4375 17.5102 2.8015 17.875 3.25 17.875H6.5C6.94931 17.875 7.3125 18.2382 7.3125 18.6875V21.8725L12.0859 18.0529C12.2306 17.9376 12.4085 17.875 12.5938 17.875H22.75C23.1985 17.875 23.5625 17.5102 23.5625 17.0625V4.0625C23.5625 3.61481 23.1985 3.25 22.75 3.25H3.25Z" fill="currentColor"/>
<path d="M19.5 9.75H6.5C6.05069 9.75 5.6875 9.386 5.6875 8.9375C5.6875 8.489 6.05069 8.125 6.5 8.125H19.5C19.9493 8.125 20.3125 8.489 20.3125 8.9375C20.3125 9.386 19.9493 9.75 19.5 9.75Z" fill="currentColor"/>
<path d="M13 13H6.5C6.05069 13 5.6875 12.636 5.6875 12.1875C5.6875 11.739 6.05069 11.375 6.5 11.375H13C13.4493 11.375 13.8125 11.739 13.8125 12.1875C13.8125 12.636 13.4493 13 13 13Z" fill="currentColor"/>
</svg>
