<svg width="19" height="19" viewBox="0 0 19 19" xmlns="http://www.w3.org/2000/svg">
<path d="M15.4375 1.1875H5.49219C5.41055 1.1875 5.34375 1.2543 5.34375 1.33594V2.375C5.34375 2.45664 5.41055 2.52344 5.49219 2.52344H14.6953V15.2891C14.6953 15.3707 14.7621 15.4375 14.8438 15.4375H15.8828C15.9645 15.4375 16.0312 15.3707 16.0312 15.2891V1.78125C16.0312 1.45283 15.7659 1.1875 15.4375 1.1875ZM13.0625 3.5625H3.5625C3.23408 3.5625 2.96875 3.82783 2.96875 4.15625V14.0032C2.96875 14.1609 3.03184 14.3112 3.14316 14.4226L6.35869 17.6381C6.39951 17.6789 6.4459 17.7123 6.496 17.7401V17.7754H6.57393C6.63887 17.7995 6.70752 17.8125 6.77803 17.8125H13.0625C13.3909 17.8125 13.6562 17.5472 13.6562 17.2188V4.15625C13.6562 3.82783 13.3909 3.5625 13.0625 3.5625ZM6.49414 15.8865L4.89658 14.2871H6.49414V15.8865ZM12.3203 16.4766H7.68164V13.8418C7.68164 13.4317 7.34951 13.0996 6.93945 13.0996H4.30469V4.89844H12.3203V16.4766Z" fill="currentColor"/>
</svg>
