<svg width="35" height="35" viewBox="0 0 35 35" xmlns="http://www.w3.org/2000/svg">
<path d="M34.5 17.5C34.5 26.8888 26.8888 34.5 17.5 34.5C8.11116 34.5 0.5 26.8888 0.5 17.5C0.5 8.11116 8.11116 0.5 17.5 0.5C26.8888 0.5 34.5 8.11116 34.5 17.5Z" stroke="currentColor" fill="none" />
<path d="M21.9368 15.8444L21.6467 18.2806C21.6342 18.3938 21.5802 18.4983 21.4951 18.574C21.4101 18.6496 21.3 18.6912 21.1862 18.6905H18.6533V25.9207C18.6539 26.007 18.6203 26.0901 18.56 26.1518C18.4996 26.2135 18.4172 26.2488 18.3309 26.25H15.7497C15.7067 26.2494 15.6643 26.2403 15.6249 26.2234C15.5854 26.2064 15.5497 26.1818 15.5198 26.151C15.4899 26.1202 15.4663 26.0838 15.4504 26.0439C15.4345 26.004 15.4267 25.9614 15.4273 25.9184L15.4411 18.6905H13.523C13.4009 18.6905 13.2837 18.6419 13.1974 18.5556C13.111 18.4692 13.0625 18.3521 13.0625 18.2299V15.7937C13.0625 15.6716 13.111 15.5545 13.1974 15.4681C13.2837 15.3817 13.4009 15.3332 13.523 15.3332H15.4296V12.9707C15.4296 10.2375 17.0553 8.75 19.4362 8.75H21.3865C21.5086 8.75 21.6258 8.79852 21.7121 8.88488C21.7985 8.97125 21.847 9.08839 21.847 9.21053V11.2622C21.847 11.3843 21.7985 11.5014 21.7121 11.5878C21.6258 11.6742 21.5086 11.7227 21.3865 11.7227H20.1914C18.8974 11.7434 18.6533 12.3628 18.6533 13.2885V15.3263H21.4878C21.5525 15.3274 21.6162 15.3421 21.6748 15.3695C21.7334 15.3969 21.7856 15.4363 21.8279 15.4852C21.8703 15.534 21.9019 15.5913 21.9206 15.6532C21.9394 15.7151 21.9449 15.7802 21.9368 15.8444Z" fill="currentColor"/>
</svg>
