<svg width="26" height="26" viewBox="0 0 26 26" xmlns="http://www.w3.org/2000/svg">
<path d="M25.4348 6.76766H17.4788C18.1842 6.4093 18.8658 5.96847 19.4152 5.41906C20.6564 4.17787 20.6564 2.15891 19.4152 0.91766C18.2124 -0.285146 16.1166 -0.286263 14.9138 0.91766C14.0276 1.80389 13.4024 3.02254 13 4.15522C12.5976 3.02254 11.9724 1.80389 11.0862 0.91766C9.88223 -0.286263 7.78527 -0.285146 6.58475 0.91766C5.34356 2.15886 5.34356 4.17782 6.58475 5.41906C7.13416 5.96847 7.81579 6.4093 8.5212 6.76766H0.565195C0.253195 6.76766 0 7.02086 0 7.33286V11.8546C0 12.1666 0.253195 12.4198 0.565195 12.4198H1.13039V25.4198C1.13039 25.7318 1.38359 25.985 1.69559 25.985H10.7391H15.2608H24.3043C24.6163 25.985 24.8695 25.7318 24.8695 25.4198V12.4198H25.4347C25.7467 12.4198 25.9998 12.1666 25.9998 11.8546V7.33286C26 7.02086 25.7468 6.76766 25.4348 6.76766ZM10.1739 24.8546H2.26088V12.4198H10.1739V24.8546ZM10.1739 11.2894H1.69564H1.13044V7.8981H10.1739V11.2894ZM7.384 4.61982C6.58364 3.81945 6.58364 2.51722 7.384 1.71686C7.77172 1.32797 8.2872 1.11545 8.83548 1.11545C9.38377 1.11545 9.89808 1.32797 10.287 1.71686C11.7396 3.16945 12.4224 5.86553 12.4382 6.74953C12.4382 6.75517 12.437 6.76309 12.437 6.76761H12.3749C11.4558 6.73603 8.81852 6.05322 7.384 4.61982ZM14.6956 24.8546H11.3043V12.4198H14.6956V24.8546ZM14.6956 11.2894H11.3043V7.8981H12.4687H12.4698H13.5302H13.5313H14.6956V11.2894ZM13.6251 6.76766H13.563C13.563 6.76314 13.5618 6.75522 13.5618 6.74958C13.5777 5.86558 14.2604 3.1695 15.713 1.71691C16.1019 1.32802 16.6162 1.1155 17.1645 1.1155C17.7128 1.1155 18.2283 1.32802 18.616 1.71691C19.4164 2.51727 19.4164 3.8195 18.616 4.61987C17.1815 6.05322 14.5442 6.73603 13.6251 6.76766ZM23.7391 24.8546H15.8261V12.4198H23.7391V24.8546ZM24.8696 11.2894H24.3044H15.8261V7.8981H24.8696V11.2894Z" fill="currentColor"/>
</svg>
