<svg width="35" height="35" viewBox="0 0 35 35" xmlns="http://www.w3.org/2000/svg">
<path d="M34.5 17.5C34.5 26.8888 26.8888 34.5 17.5 34.5C8.11116 34.5 0.5 26.8888 0.5 17.5C0.5 8.11116 8.11116 0.5 17.5 0.5C26.8888 0.5 34.5 8.11116 34.5 17.5Z" stroke="currentColor" fill="none" />
<path d="M21.0368 8.75H13.9632C12.5811 8.75183 11.2562 9.30166 10.2789 10.2789C9.30166 11.2562 8.75183 12.5811 8.75 13.9632V21.0368C8.75183 22.4189 9.30166 23.7438 10.2789 24.7211C11.2562 25.6983 12.5811 26.2482 13.9632 26.25H21.0368C22.4191 26.2488 23.7444 25.6991 24.7218 24.7218C25.6991 23.7444 26.2488 22.4191 26.25 21.0368V13.9632C26.2482 12.5811 25.6983 11.2562 24.7211 10.2789C23.7438 9.30166 22.4189 8.75183 21.0368 8.75ZM24.4908 21.0368C24.4908 21.9529 24.1269 22.8314 23.4792 23.4792C22.8314 24.1269 21.9529 24.4908 21.0368 24.4908H13.9632C13.0471 24.4908 12.1686 24.1269 11.5208 23.4792C10.8731 22.8314 10.5092 21.9529 10.5092 21.0368V13.9632C10.5092 13.0471 10.8731 12.1686 11.5208 11.5208C12.1686 10.8731 13.0471 10.5092 13.9632 10.5092H21.0368C21.9529 10.5092 22.8314 10.8731 23.4792 11.5208C24.1269 12.1686 24.4908 13.0471 24.4908 13.9632V21.0368Z" fill="currentColor"/>
<path d="M17.498 12.9751C16.6025 12.9746 15.7269 13.2398 14.9821 13.7371C14.2373 14.2343 13.6567 14.9413 13.3138 15.7686C12.9709 16.5959 12.881 17.5063 13.0556 18.3847C13.2302 19.263 13.6614 20.0699 14.2947 20.7031C14.9279 21.3364 15.7348 21.7676 16.6131 21.9422C17.4915 22.1168 18.4019 22.0269 19.2292 21.684C20.0565 21.3411 20.7635 20.7605 21.2607 20.0157C21.758 19.2709 22.0232 18.3953 22.0227 17.4998C22.0215 16.3001 21.5444 15.15 20.6961 14.3017C19.8478 13.4534 18.6977 12.9763 17.498 12.9751ZM17.498 20.2629C16.9515 20.2629 16.4173 20.1009 15.9629 19.7973C15.5085 19.4936 15.1543 19.0621 14.9452 18.5572C14.7361 18.0523 14.6813 17.4967 14.788 16.9607C14.8946 16.4247 15.1577 15.9324 15.5442 15.5459C15.9306 15.1595 16.423 14.8963 16.959 14.7897C17.495 14.6831 18.0505 14.7378 18.5554 14.9469C19.0603 15.1561 19.4919 15.5102 19.7955 15.9646C20.0991 16.419 20.2612 16.9533 20.2612 17.4998C20.2612 18.2326 19.9701 18.9354 19.4519 19.4536C18.9337 19.9718 18.2309 20.2629 17.498 20.2629Z" fill="currentColor"/>
<path d="M22.0488 14.0946C22.6668 14.0946 23.1678 13.5936 23.1678 12.9755C23.1678 12.3575 22.6668 11.8564 22.0488 11.8564C21.4307 11.8564 20.9297 12.3575 20.9297 12.9755C20.9297 13.5936 21.4307 14.0946 22.0488 14.0946Z" fill="currentColor"/>
</svg>
