<svg xmlns="http://www.w3.org/2000/svg" viewBox="0 0 37.21 35.4"><path d="M15.2,40.6a1.42,1.42,0,0,1-.6-.2,1,1,0,0,1-.4-1.1l3.9-12L7.9,19.8A1,1,0,0,1,8.5,18H21.2L25,5.9a1,1,0,0,1,1-.7,1.09,1.09,0,0,1,1,.7L30.9,18H43.6a1.1,1.1,0,0,1,1,.6.84.84,0,0,1-.4,1.1L34,27.1l3.9,12a1,1,0,0,1-.4,1.1,1.05,1.05,0,0,1-1.2,0L26,33,15.8,40.4A1.42,1.42,0,0,1,15.2,40.6ZM26,30.7a1.42,1.42,0,0,1,.6.2L34.9,37l-3.2-9.8a1,1,0,0,1,.4-1.1L40.4,20H30.1a1.2,1.2,0,0,1-1-.7L26,9.5l-3.2,9.8a1,1,0,0,1-1,.7H11.5l8.3,6.1a1,1,0,0,1,.4,1.1L17.1,37l8.3-6.1A1.42,1.42,0,0,1,26,30.7Z" transform="translate(-7.46 -5.2)" fill="currentColor" /></svg>