<svg width="14" height="14" viewBox="0 0 14 14" xmlns="http://www.w3.org/2000/svg">
<path d="M13.3908 4.8842L9.53548 4.51965C9.29244 4.49755 9.08243 4.34289 8.98312 4.1109L7.60222 0.763632C7.38127 0.211276 6.59681 0.211276 6.37587 0.763632L5.00602 4.1109C4.91764 4.34289 4.69669 4.49755 4.45366 4.51965L0.598184 4.8842C0.0237291 4.93944 -0.208262 5.6575 0.222579 6.04415L3.12799 8.59603C3.31579 8.76173 3.39313 9.00477 3.33789 9.24781L2.46516 12.827C2.33259 13.3905 2.94019 13.8543 3.44836 13.5562L6.6631 11.667C6.87299 11.5455 7.12708 11.5455 7.33698 11.667L10.5518 13.5562C11.06 13.8543 11.6676 13.4015 11.5349 12.827L10.6732 9.24781C10.618 9.00477 10.6953 8.76173 10.8831 8.59603L13.7885 6.04415C14.2083 5.6575 13.9653 4.93944 13.3908 4.8842Z" fill="currentColor"/>
</svg>
