<svg width="35" height="35" viewBox="0 0 35 35" xmlns="http://www.w3.org/2000/svg">
<path d="M34.5 17.5C34.5 26.8888 26.8888 34.5 17.5 34.5C8.11116 34.5 0.5 26.8888 0.5 17.5C0.5 8.11116 8.11116 0.5 17.5 0.5C26.8888 0.5 34.5 8.11116 34.5 17.5Z" stroke="currentColor" fill="none" />
<path d="M25.5466 18.8356C25.2724 18.445 25.1296 17.9773 25.139 17.5001C25.1386 16.271 24.8417 15.0601 24.2735 13.9703C23.7053 12.8804 22.8825 11.9437 21.8749 11.2397C20.8674 10.5357 19.7049 10.0852 18.4861 9.92636C17.2673 9.76754 16.0282 9.90511 14.8739 10.3274C14.4313 10.4922 13.9483 10.5148 13.4923 10.3919C13.0786 10.2752 12.6477 10.2316 12.2189 10.2629C11.5559 10.3091 10.9173 10.5317 10.3692 10.9076C9.82116 11.2836 9.38355 11.7992 9.10174 12.4011C8.81992 13.0031 8.70414 13.6694 8.76639 14.3311C8.82864 14.9928 9.06666 15.6258 9.45579 16.1646C9.72971 16.5553 9.87243 17.023 9.86335 17.5001C9.86373 18.7292 10.1606 19.9401 10.7289 21.03C11.2971 22.1198 12.1199 23.0565 13.1274 23.7605C14.135 24.4645 15.2975 24.9151 16.5163 25.0739C17.7351 25.2327 18.9742 25.0951 20.1285 24.6728C20.5711 24.508 21.0541 24.4855 21.5101 24.6083C22.0488 24.7613 22.6152 24.7909 23.167 24.695C23.7188 24.599 24.2418 24.38 24.6974 24.0541C25.1529 23.7282 25.5291 23.3039 25.7981 22.8127C26.0671 22.3214 26.222 21.7759 26.2512 21.2166C26.2964 20.3656 26.0476 19.525 25.5466 18.8356ZM17.5012 16.061L17.7821 16.1301C19.3203 16.4962 21.6459 17.0511 21.6459 19.6139C21.6731 20.1932 21.5193 20.7665 21.2056 21.2543C20.892 21.7421 20.4342 22.12 19.8959 22.3356C19.131 22.6212 18.317 22.7519 17.5012 22.7202H17.393C14.9775 22.7202 13.4532 20.8412 13.3887 20.7606C13.275 20.6454 13.1868 20.5075 13.13 20.3559C13.0732 20.2043 13.049 20.0424 13.059 19.8808C13.0689 19.7193 13.1129 19.5616 13.1879 19.4181C13.263 19.2747 13.3675 19.1487 13.4945 19.0483C13.6216 18.948 13.7684 18.8756 13.9253 18.8358C14.0822 18.7961 14.2458 18.7898 14.4053 18.8176C14.5648 18.8453 14.7167 18.9064 14.851 18.9968C14.9853 19.0872 15.099 19.2049 15.1847 19.3422C15.1847 19.3422 16.1058 20.3945 17.393 20.4337H17.5012C18.9657 20.4567 19.3064 20.0054 19.3433 19.6208C19.3986 19.1603 19.014 18.8195 17.5012 18.435L17.2502 18.3728C15.7834 18.0251 13.566 17.4978 13.566 15.1376C13.566 14.4146 13.8538 12.0935 17.4966 12.006H17.713C20.1423 12.006 21.5768 13.9195 21.6275 14.0024C21.7793 14.2478 21.8334 14.5411 21.7792 14.8245C21.7249 15.1078 21.5663 15.3605 21.3347 15.5324C21.1031 15.7044 20.8154 15.7832 20.5284 15.7531C20.2415 15.7231 19.9764 15.5864 19.7854 15.3702C19.2386 14.7863 18.5062 14.4103 17.713 14.3064L17.5012 14.2764C16.6492 14.2534 15.8663 14.5758 15.8663 15.0317C15.8663 15.5291 16.1012 15.7179 17.5012 16.061Z" fill="currentColor"/>
</svg>
