<svg width="35" height="35" viewBox="0 0 35 35" xmlns="http://www.w3.org/2000/svg">
<path d="M34.5 17.5C34.5 26.8888 26.8888 34.5 17.5 34.5C8.11116 34.5 0.5 26.8888 0.5 17.5C0.5 8.11116 8.11116 0.5 17.5 0.5C26.8888 0.5 34.5 8.11116 34.5 17.5Z" stroke="currentColor" fill="none" />
<path d="M26.2149 12.204C25.8012 12.8254 25.2958 13.3805 24.7159 13.8504C24.6427 13.9114 24.5841 13.9878 24.5443 14.0743C24.5045 14.1607 24.4844 14.2549 24.4856 14.3501V14.4077C24.4788 15.6555 24.2496 16.8922 23.8086 18.0596C23.3542 19.2849 22.6792 20.4165 21.8168 21.3984C20.658 22.7176 19.1673 23.7027 17.4994 24.2514C16.4034 24.6071 15.2576 24.7851 14.1053 24.7787C12.2774 24.7785 10.482 24.2947 8.90139 23.3764C8.84475 23.3442 8.80017 23.2944 8.7744 23.2346C8.74864 23.1747 8.7431 23.1081 8.75863 23.0448C8.77457 22.9826 8.81088 22.9274 8.8618 22.8882C8.91271 22.849 8.97528 22.8279 9.03955 22.8284H9.47705C10.8662 22.8318 12.2247 22.4196 13.3777 21.6448C12.6905 21.5336 12.0474 21.2348 11.5193 20.7813C10.9911 20.3279 10.5983 19.7375 10.3843 19.0751C10.3733 19.0419 10.3713 19.0064 10.3785 18.9722C10.3857 18.9381 10.4018 18.9064 10.4252 18.8804C10.4486 18.8545 10.4784 18.8352 10.5117 18.8245C10.5449 18.8138 10.5804 18.812 10.6145 18.8195C10.8241 18.8589 11.0368 18.879 11.2501 18.8794H11.3307C10.6665 18.5743 10.105 18.0833 9.71394 17.4659C9.32288 16.8484 9.11903 16.1309 9.12705 15.4001C9.12729 15.3659 9.13638 15.3323 9.15343 15.3027C9.17049 15.2731 9.19493 15.2483 9.22437 15.231C9.25382 15.2136 9.28727 15.2041 9.32146 15.2035C9.35565 15.2028 9.38942 15.2111 9.41948 15.2274C9.68961 15.3782 9.97947 15.4906 10.2807 15.5613C9.68533 14.9723 9.30239 14.2023 9.19195 13.3721C9.08152 12.5419 9.24982 11.6986 9.67047 10.9744C9.68638 10.9466 9.70881 10.9231 9.73582 10.9058C9.76284 10.8886 9.79363 10.8782 9.82556 10.8755C9.85749 10.8727 9.8896 10.8778 9.91914 10.8902C9.94867 10.9027 9.97476 10.9221 9.99514 10.9468C10.8268 11.9765 11.8568 12.8288 13.024 13.4529C14.1913 14.0771 15.472 14.4605 16.7902 14.5804H16.8086C16.828 14.5798 16.847 14.5753 16.8646 14.5671C16.8822 14.559 16.8979 14.5473 16.9108 14.5329C16.9238 14.5185 16.9336 14.5015 16.9398 14.4832C16.946 14.4648 16.9483 14.4454 16.9468 14.4261C16.8954 13.964 16.925 13.4964 17.0343 13.0445C17.1828 12.4302 17.4878 11.8648 17.9195 11.4032C18.3513 10.9416 18.8951 10.5995 19.4981 10.4103C19.885 10.2894 20.2878 10.2273 20.6932 10.2261C21.6122 10.225 22.4999 10.56 23.1892 11.1679C23.2785 11.2477 23.3941 11.292 23.5139 11.2922C23.5528 11.2914 23.5914 11.286 23.629 11.2761C24.2767 11.1124 24.8972 10.8557 25.4711 10.5139C25.5055 10.4927 25.5455 10.4827 25.5858 10.4851C25.6261 10.4876 25.6646 10.5024 25.6961 10.5277C25.7277 10.5529 25.7506 10.5872 25.7618 10.626C25.7731 10.6647 25.7721 10.706 25.7589 10.7442C25.5673 11.347 25.2259 11.8913 24.7665 12.3261C25.1803 12.2274 25.5842 12.091 25.9731 11.9185C26.0115 11.9037 26.0535 11.9012 26.0934 11.9114C26.1332 11.9215 26.1689 11.9439 26.1955 11.9753C26.2221 12.0067 26.2383 12.0456 26.2417 12.0866C26.2452 12.1276 26.2358 12.1686 26.2149 12.204Z" fill="currentColor"/>
</svg>
