<svg width="15" height="15" viewBox="0 0 15 15" xmlns="http://www.w3.org/2000/svg">
<path d="M9.74804 7.49914C9.74804 8.69078 8.73974 9.65679 7.49593 9.65679C6.25213 9.65679 5.24383 8.69078 5.24383 7.49914C5.24383 6.30749 6.25213 5.34149 7.49593 5.34149C8.73974 5.34148 9.74804 6.3075 9.74804 7.49914ZM7.5 3.00659C6.21219 3.0123 4.87733 3.32582 3.6137 3.92605C2.67548 4.39008 1.76113 5.04475 0.967425 5.85282C0.5776 6.2653 0.0803875 6.86258 0 7.49984C0.0095 8.05186 0.601625 8.7332 0.967425 9.14688C1.71171 9.92321 2.60225 10.5596 3.6137 11.0741C4.79209 11.646 6.0964 11.9753 7.5 11.9936C8.78904 11.9878 10.1236 11.6707 11.3858 11.0741C12.3241 10.6101 13.2389 9.95494 14.0326 9.14688C14.4224 8.73439 14.9196 8.1371 15 7.49984C14.9905 6.94783 14.3984 6.26645 14.0326 5.85279C13.2883 5.07647 12.3973 4.44055 11.3858 3.92603C10.2081 3.35458 8.90053 3.02758 7.5 3.00659ZM7.49905 4.12219C9.45054 4.12219 11.0325 5.63462 11.0325 7.50033C11.0325 9.36603 9.45054 10.8785 7.49905 10.8785C5.54756 10.8785 3.96561 9.36602 3.96561 7.50033C3.96561 5.63462 5.54756 4.12219 7.49905 4.12219Z" fill="currentColor"/>
</svg>
