<svg width="35" height="35" viewBox="0 0 35 35" xmlns="http://www.w3.org/2000/svg">
<path d="M34.5 17.5C34.5 26.8888 26.8888 34.5 17.5 34.5C8.11116 34.5 0.5 26.8888 0.5 17.5C0.5 8.11116 8.11116 0.5 17.5 0.5C26.8888 0.5 34.5 8.11116 34.5 17.5Z" stroke="currentColor" fill="none" />
<path d="M25.8409 13.2906C25.4909 12.2037 24.3327 11.5613 23.2574 11.4116C19.4243 11.0041 15.5589 11.0041 11.7258 11.4116C10.6597 11.5613 9.50147 12.213 9.15147 13.2906C8.60576 16.071 8.60576 18.9309 9.15147 21.7113C9.51068 22.7958 10.6689 23.4406 11.7442 23.5903C15.5774 23.9955 19.4426 23.9955 23.2758 23.5903C24.3419 23.4406 25.5002 22.7866 25.8502 21.7113C26.3928 18.9303 26.3897 16.0704 25.8409 13.2906ZM15.4077 20.8524V14.1472L20.8673 17.4998C19.0275 18.6304 17.2406 19.731 15.4077 20.8524Z" fill="currentColor"/>
</svg>
