<svg width="36" height="36" viewBox="0 0 36 36" fill="none" xmlns="http://www.w3.org/2000/svg">
<g clip-path="url(#clip0_5599_513)">
<path d="M9 17.4001C10.185 17.3986 11.3276 16.9595 12.2087 16.167C13.0897 15.3746 13.647 14.2847 13.7736 13.1065C14.1307 12.986 14.4411 12.7565 14.6611 12.4504C14.8811 12.1444 14.9996 11.777 15 11.4001V9.0001C14.9992 8.26143 14.7715 7.54084 14.3479 6.93574C13.9242 6.33064 13.325 5.87021 12.6312 5.6167C12.7911 5.44655 12.8977 5.23336 12.9379 5.00339C12.9781 4.77342 12.9502 4.5367 12.8577 4.32238C12.7651 4.10806 12.6118 3.9255 12.4168 3.79716C12.2218 3.66883 11.9935 3.60033 11.76 3.6001H7.8C6.5274 3.60153 5.30733 4.1077 4.40747 5.00756C3.5076 5.90743 3.00143 7.1275 3 8.4001V11.4001C3.0004 11.777 3.11892 12.1444 3.3389 12.4504C3.55889 12.7565 3.86926 12.986 4.2264 13.1065C4.353 14.2847 4.9103 15.3746 5.79133 16.167C6.67236 16.9595 7.81503 17.3986 9 17.4001ZM7.8 4.8001L11.76 4.7947L10.98 5.5747C10.896 5.65829 10.8386 5.76491 10.815 5.8811C10.7915 5.99728 10.803 6.11783 10.8479 6.22752C10.8928 6.33722 10.9692 6.43115 11.0675 6.49746C11.1658 6.56377 11.2815 6.59948 11.4 6.6001C12.0365 6.6001 12.647 6.85295 13.0971 7.30304C13.5471 7.75313 13.8 8.36358 13.8 9.0001V9.1069C13.7152 9.07497 13.6279 9.05008 13.539 9.0325C13.2946 8.98506 13.0431 8.98914 12.8004 9.0445C12.376 8.67426 11.8456 8.4473 11.2848 8.3959C10.7346 8.34054 10.2111 8.13159 9.774 7.7929C9.56278 7.59894 9.28646 7.49132 8.9997 7.49132C8.71294 7.49132 8.43662 7.59894 8.2254 7.7929C7.78857 8.13166 7.26522 8.34063 6.7152 8.3959C6.15435 8.4473 5.624 8.67426 5.1996 9.0445C4.95692 8.98916 4.70535 8.98507 4.461 9.0325C4.3721 9.05008 4.28481 9.07497 4.2 9.1069V8.4001C4.20095 7.44561 4.58054 6.53049 5.25547 5.85556C5.93039 5.18064 6.84551 4.80105 7.8 4.8001ZM4.2 10.8601C4.19647 10.6942 4.25674 10.5332 4.36837 10.4104C4.48001 10.2876 4.6345 10.2124 4.8 10.2001C4.91911 10.2011 5.03546 10.2361 5.1354 10.3009C5.21404 10.3487 5.30253 10.378 5.39418 10.3865C5.48582 10.3951 5.5782 10.3826 5.66431 10.3501C5.75042 10.3176 5.828 10.2659 5.89115 10.199C5.9543 10.132 6.00138 10.0516 6.0288 9.9637C6.0888 9.7723 6.2976 9.7021 6.9486 9.5731C7.6993 9.48255 8.40978 9.18414 9 8.7115C9.59022 9.18414 10.3007 9.48255 11.0514 9.5731C11.7024 9.7021 11.9136 9.7723 11.9712 9.9637C11.9994 10.051 12.0469 10.1308 12.1102 10.1972C12.1735 10.2636 12.2509 10.315 12.3367 10.3474C12.4226 10.3797 12.5146 10.3924 12.606 10.3844C12.6974 10.3763 12.7858 10.3478 12.8646 10.3009C12.9985 10.2139 13.1607 10.1819 13.3176 10.2115C13.4599 10.2483 13.5854 10.3328 13.6731 10.4508C13.7609 10.5687 13.8057 10.7132 13.8 10.8601V11.4001C13.8 11.5592 13.7368 11.7118 13.6243 11.8244C13.5117 11.9369 13.3591 12.0001 13.2 12.0001C13.0409 12.0001 12.8883 12.0633 12.7757 12.1758C12.6632 12.2884 12.6 12.441 12.6 12.6001C12.6 13.5549 12.2207 14.4705 11.5456 15.1457C10.8705 15.8208 9.95478 16.2001 9 16.2001C8.04522 16.2001 7.12955 15.8208 6.45442 15.1457C5.77928 14.4705 5.4 13.5549 5.4 12.6001C5.4 12.441 5.33679 12.2884 5.22426 12.1758C5.11174 12.0633 4.95913 12.0001 4.8 12.0001C4.64087 12.0001 4.48826 11.9369 4.37574 11.8244C4.26321 11.7118 4.2 11.5592 4.2 11.4001V10.8601Z" fill="white"/>
<path d="M33.4644 12.5874C33.0893 12.2243 32.5876 12.0212 32.0655 12.0212C31.5434 12.0212 31.0417 12.2243 30.6666 12.5874L26.4 16.8516V6.49801C26.4008 6.2605 26.3544 6.0252 26.2635 5.80579C26.1725 5.58639 26.0388 5.38726 25.8702 5.22001L21.18 0.529811C21.0127 0.361174 20.8136 0.227486 20.5942 0.136531C20.3748 0.0455756 20.1395 -0.000831334 19.902 1.12716e-05H1.8C1.32261 1.12716e-05 0.864773 0.189654 0.527208 0.527219C0.189642 0.864785 0 1.32262 0 1.80001L0 34.2C0 34.6774 0.189642 35.1352 0.527208 35.4728C0.864773 35.8104 1.32261 36 1.8 36H24.6C25.0774 36 25.5352 35.8104 25.8728 35.4728C26.2104 35.1352 26.4 34.6774 26.4 34.2V26.3484L35.4132 17.3352C35.5988 17.1519 35.7463 16.9336 35.8469 16.6929C35.9475 16.4522 35.9993 16.1939 35.9993 15.933C35.9993 15.6721 35.9475 15.4138 35.8469 15.1731C35.7463 14.9324 35.5988 14.7141 35.4132 14.5308L33.4644 12.5874ZM18.2736 26.6748L27.1872 17.76L28.2882 18.861L19.3752 27.78L18.2736 26.6748ZM17.406 27.9222C17.4285 27.8136 17.4627 27.7078 17.508 27.6066L20.394 30.492C20.2913 30.5373 20.1841 30.5717 20.0742 30.5946L17.0856 31.1946C17.0471 31.2022 17.0074 31.2003 16.9698 31.189C16.9323 31.1777 16.8981 31.1574 16.8702 31.1298C16.8423 31.1022 16.8218 31.068 16.8105 31.0303C16.7991 30.9927 16.7974 30.9529 16.8054 30.9144L17.406 27.9222ZM21.3252 29.7264L20.2236 28.6254L29.1372 19.7118L30.24 20.8128L21.3252 29.7264ZM28.0356 16.9128L29.139 15.8094L32.1906 18.861L31.0872 19.9644L28.0356 16.9128ZM24.3516 5.40001H22.2C21.8817 5.40001 21.5765 5.27358 21.3515 5.04854C21.1264 4.8235 21 4.51827 21 4.20001V2.04841L24.3516 5.40001ZM25.2 34.2C25.2 34.3591 25.1368 34.5118 25.0243 34.6243C24.9117 34.7368 24.7591 34.8 24.6 34.8H1.8C1.64087 34.8 1.48826 34.7368 1.37574 34.6243C1.26321 34.5118 1.2 34.3591 1.2 34.2V1.80001C1.2 1.64088 1.26321 1.48827 1.37574 1.37575C1.48826 1.26323 1.64087 1.20001 1.8 1.20001H19.8V4.20001C19.8 4.83653 20.0529 5.44698 20.5029 5.89707C20.953 6.34716 21.5635 6.60001 22.2 6.60001H25.2V18.0516L17.0004 26.2512C16.605 26.6433 16.3363 27.1449 16.2288 27.6912L15.6288 30.6804C15.5875 30.8891 15.5929 31.1043 15.6447 31.3106C15.6965 31.5169 15.7933 31.7091 15.9282 31.8735C16.0632 32.0379 16.2328 32.1704 16.4251 32.2615C16.6173 32.3525 16.8273 32.3998 17.04 32.4C17.1355 32.3999 17.2307 32.3904 17.3244 32.3718L20.31 31.7718C20.8564 31.6642 21.358 31.3952 21.75 30.9996L25.2 27.5484V34.2ZM34.5696 16.482L34.5666 16.485L33.039 18.0126L29.9874 14.961L31.518 13.4304C31.5893 13.3572 31.6746 13.299 31.7688 13.2594C31.8631 13.2198 31.9643 13.1996 32.0666 13.1999C32.1688 13.2002 32.2699 13.2211 32.3639 13.2614C32.4578 13.3016 32.5428 13.3603 32.6136 13.434L34.5666 15.3798C34.6407 15.4526 34.6995 15.5395 34.7396 15.6353C34.7797 15.7311 34.8002 15.834 34.8 15.9378C34.7996 16.0393 34.779 16.1396 34.7395 16.2331C34.6999 16.3265 34.6422 16.4111 34.5696 16.482Z" fill="white"/>
<path d="M17.3969 13.8001H22.1969C22.356 13.8001 22.5086 13.7369 22.6211 13.6244C22.7337 13.5118 22.7969 13.3592 22.7969 13.2001C22.7969 13.041 22.7337 12.8884 22.6211 12.7758C22.5086 12.6633 22.356 12.6001 22.1969 12.6001H17.3969C17.2377 12.6001 17.0851 12.6633 16.9726 12.7758C16.8601 12.8884 16.7969 13.041 16.7969 13.2001C16.7969 13.3592 16.8601 13.5118 16.9726 13.6244C17.0851 13.7369 17.2377 13.8001 17.3969 13.8001Z" fill="white"/>
<path d="M17.3969 10.2H22.1969C22.356 10.2 22.5086 10.1368 22.6211 10.0243C22.7337 9.91174 22.7969 9.75913 22.7969 9.6C22.7969 9.44087 22.7337 9.28826 22.6211 9.17574C22.5086 9.06321 22.356 9 22.1969 9H17.3969C17.2377 9 17.0851 9.06321 16.9726 9.17574C16.8601 9.28826 16.7969 9.44087 16.7969 9.6C16.7969 9.75913 16.8601 9.91174 16.9726 10.0243C17.0851 10.1368 17.2377 10.2 17.3969 10.2Z" fill="white"/>
<path d="M17.3969 17.4H22.1969C22.356 17.4 22.5086 17.3367 22.6211 17.2242C22.7337 17.1117 22.7969 16.9591 22.7969 16.8C22.7969 16.6408 22.7337 16.4882 22.6211 16.3757C22.5086 16.2632 22.356 16.2 22.1969 16.2H17.3969C17.2377 16.2 17.0851 16.2632 16.9726 16.3757C16.8601 16.4882 16.7969 16.6408 16.7969 16.8C16.7969 16.9591 16.8601 17.1117 16.9726 17.2242C17.0851 17.3367 17.2377 17.4 17.3969 17.4Z" fill="white"/>
<path d="M19.2016 19.8H4.20156C4.04243 19.8 3.88982 19.8633 3.7773 19.9758C3.66478 20.0883 3.60156 20.2409 3.60156 20.4C3.60156 20.5592 3.66478 20.7118 3.7773 20.8243C3.88982 20.9368 4.04243 21 4.20156 21H19.2016C19.3607 21 19.5133 20.9368 19.6258 20.8243C19.7383 20.7118 19.8016 20.5592 19.8016 20.4C19.8016 20.2409 19.7383 20.0883 19.6258 19.9758C19.5133 19.8633 19.3607 19.8 19.2016 19.8Z" fill="white"/>
<path d="M16.2016 23.9999C16.2016 23.8408 16.1384 23.6882 16.0258 23.5756C15.9133 23.4631 15.7607 23.3999 15.6016 23.3999H4.20156C4.04243 23.3999 3.88982 23.4631 3.7773 23.5756C3.66478 23.6882 3.60156 23.8408 3.60156 23.9999C3.60156 24.159 3.66478 24.3116 3.7773 24.4242C3.88982 24.5367 4.04243 24.5999 4.20156 24.5999H15.6016C15.7607 24.5999 15.9133 24.5367 16.0258 24.4242C16.1384 24.3116 16.2016 24.159 16.2016 23.9999Z" fill="white"/>
<path d="M13.8016 27H4.20156C4.04243 27 3.88982 27.0632 3.7773 27.1757C3.66478 27.2883 3.60156 27.4409 3.60156 27.6C3.60156 27.7591 3.66478 27.9117 3.7773 28.0243C3.88982 28.1368 4.04243 28.2 4.20156 28.2H13.8016C13.9607 28.2 14.1133 28.1368 14.2258 28.0243C14.3384 27.9117 14.4016 27.7591 14.4016 27.6C14.4016 27.4409 14.3384 27.2883 14.2258 27.1757C14.1133 27.0632 13.9607 27 13.8016 27Z" fill="white"/>
<path d="M13.2016 30.6001H4.20156C4.04243 30.6001 3.88982 30.6633 3.7773 30.7758C3.66478 30.8884 3.60156 31.041 3.60156 31.2001C3.60156 31.3592 3.66478 31.5118 3.7773 31.6244C3.88982 31.7369 4.04243 31.8001 4.20156 31.8001H13.2016C13.3607 31.8001 13.5133 31.7369 13.6258 31.6244C13.7384 31.5118 13.8016 31.3592 13.8016 31.2001C13.8016 31.041 13.7384 30.8884 13.6258 30.7758C13.5133 30.6633 13.3607 30.6001 13.2016 30.6001Z" fill="white"/>
</g>
<defs>
<clipPath id="clip0_5599_513">
<rect width="36" height="36" fill="white"/>
</clipPath>
</defs>
</svg>
