<svg width="40" height="40" viewBox="0 0 40 40" fill="none" xmlns="http://www.w3.org/2000/svg">
<path d="M20.625 32.5H4.375C3.87789 32.4995 3.40129 32.3017 3.04978 31.9502C2.69827 31.5987 2.50055 31.1221 2.5 30.625V13.75H35V20C35 20.1658 35.0658 20.3247 35.1831 20.4419C35.3003 20.5592 35.4592 20.625 35.625 20.625C35.7908 20.625 35.9497 20.5592 36.0669 20.4419C36.1842 20.3247 36.25 20.1658 36.25 20V9.375C36.249 8.5465 35.9195 7.75221 35.3336 7.16637C34.7478 6.58053 33.9535 6.25098 33.125 6.25H30.625V5C30.625 4.33696 30.3616 3.70107 29.8928 3.23223C29.4239 2.76339 28.788 2.5 28.125 2.5C27.462 2.5 26.8261 2.76339 26.3572 3.23223C25.8884 3.70107 25.625 4.33696 25.625 5V6.25H21.25V5C21.25 4.33696 20.9866 3.70107 20.5178 3.23223C20.0489 2.76339 19.413 2.5 18.75 2.5C18.087 2.5 17.4511 2.76339 16.9822 3.23223C16.5134 3.70107 16.25 4.33696 16.25 5V6.25H11.875V5C11.875 4.33696 11.6116 3.70107 11.1428 3.23223C10.6739 2.76339 10.038 2.5 9.375 2.5C8.71196 2.5 8.07607 2.76339 7.60723 3.23223C7.13839 3.70107 6.875 4.33696 6.875 5V6.25H4.375C3.5465 6.25098 2.75221 6.58053 2.16637 7.16637C1.58053 7.75221 1.25098 8.5465 1.25 9.375V30.625C1.25098 31.4535 1.58053 32.2478 2.16637 32.8336C2.75221 33.4195 3.5465 33.749 4.375 33.75H20.625C20.7908 33.75 20.9497 33.6842 21.0669 33.5669C21.1842 33.4497 21.25 33.2908 21.25 33.125C21.25 32.9592 21.1842 32.8003 21.0669 32.6831C20.9497 32.5658 20.7908 32.5 20.625 32.5ZM26.875 5C26.875 4.66848 27.0067 4.35054 27.2411 4.11612C27.4755 3.8817 27.7935 3.75 28.125 3.75C28.4565 3.75 28.7745 3.8817 29.0089 4.11612C29.2433 4.35054 29.375 4.66848 29.375 5V6.25H26.875V5ZM17.5 5C17.5 4.66848 17.6317 4.35054 17.8661 4.11612C18.1005 3.8817 18.4185 3.75 18.75 3.75C19.0815 3.75 19.3995 3.8817 19.6339 4.11612C19.8683 4.35054 20 4.66848 20 5V6.25H17.5V5ZM8.125 5C8.125 4.66848 8.2567 4.35054 8.49112 4.11612C8.72554 3.8817 9.04348 3.75 9.375 3.75C9.70652 3.75 10.0245 3.8817 10.2589 4.11612C10.4933 4.35054 10.625 4.66848 10.625 5V6.25H8.125V5ZM4.375 7.5H6.875V8.75C6.875 9.41304 7.13839 10.0489 7.60723 10.5178C8.07607 10.9866 8.71196 11.25 9.375 11.25C10.038 11.25 10.6739 10.9866 11.1428 10.5178C11.6116 10.0489 11.875 9.41304 11.875 8.75H10.625C10.625 9.08152 10.4933 9.39946 10.2589 9.63388C10.0245 9.8683 9.70652 10 9.375 10C9.04348 10 8.72554 9.8683 8.49112 9.63388C8.2567 9.39946 8.125 9.08152 8.125 8.75V7.5H16.25V8.75C16.25 9.41304 16.5134 10.0489 16.9822 10.5178C17.4511 10.9866 18.087 11.25 18.75 11.25C19.413 11.25 20.0489 10.9866 20.5178 10.5178C20.9866 10.0489 21.25 9.41304 21.25 8.75H20C20 9.08152 19.8683 9.39946 19.6339 9.63388C19.3995 9.8683 19.0815 10 18.75 10C18.4185 10 18.1005 9.8683 17.8661 9.63388C17.6317 9.39946 17.5 9.08152 17.5 8.75V7.5H25.625V8.75C25.625 9.41304 25.8884 10.0489 26.3572 10.5178C26.8261 10.9866 27.462 11.25 28.125 11.25C28.788 11.25 29.4239 10.9866 29.8928 10.5178C30.3616 10.0489 30.625 9.41304 30.625 8.75H29.375C29.375 9.08152 29.2433 9.39946 29.0089 9.63388C28.7745 9.8683 28.4565 10 28.125 10C27.7935 10 27.4755 9.8683 27.2411 9.63388C27.0067 9.39946 26.875 9.08152 26.875 8.75V7.5H33.125C33.6221 7.50055 34.0987 7.69827 34.4502 8.04978C34.8017 8.40129 34.9995 8.87789 35 9.375V12.5H2.5V9.375C2.50055 8.87789 2.69827 8.40129 3.04978 8.04978C3.40129 7.69827 3.87789 7.50055 4.375 7.5Z" fill="white"/>
<path d="M17.5 21.875H20V24.375H17.5V21.875Z" fill="white"/>
<path d="M17.5 16.875H20V19.375H17.5V16.875Z" fill="white"/>
<path d="M11.875 21.875H14.375V24.375H11.875V21.875Z" fill="white"/>
<path d="M11.875 26.875H14.375V29.375H11.875V26.875Z" fill="white"/>
<path d="M11.875 16.875H14.375V19.375H11.875V16.875Z" fill="white"/>
<path d="M6.25 21.875H8.75V24.375H6.25V21.875Z" fill="white"/>
<path d="M6.25 26.875H8.75V29.375H6.25V26.875Z" fill="white"/>
<path d="M6.25 16.875H8.75V19.375H6.25V16.875Z" fill="white"/>
<path d="M23.125 16.875H25.625V19.375H23.125V16.875Z" fill="white"/>
<path d="M28.75 16.875H31.25V19.375H28.75V16.875Z" fill="white"/>
<path d="M30 20C28.2694 20 26.5777 20.5132 25.1388 21.4746C23.6998 22.4361 22.5783 23.8027 21.9161 25.4015C21.2538 27.0004 21.0805 28.7597 21.4181 30.457C21.7558 32.1544 22.5891 33.7135 23.8128 34.9372C25.0365 36.1609 26.5956 36.9942 28.293 37.3319C29.9903 37.6695 31.7496 37.4962 33.3485 36.8339C34.9473 36.1717 36.3139 35.0502 37.2754 33.6112C38.2368 32.1723 38.75 30.4806 38.75 28.75C38.7474 26.4302 37.8247 24.2061 36.1843 22.5657C34.5439 20.9253 32.3198 20.0026 30 20ZM30 36.25C28.5166 36.25 27.0666 35.8101 25.8332 34.986C24.5999 34.1619 23.6386 32.9906 23.0709 31.6201C22.5033 30.2497 22.3547 28.7417 22.6441 27.2868C22.9335 25.832 23.6478 24.4956 24.6967 23.4467C25.7456 22.3978 27.082 21.6835 28.5368 21.3941C29.9917 21.1047 31.4997 21.2532 32.8701 21.8209C34.2406 22.3886 35.4119 23.3499 36.236 24.5832C37.0601 25.8166 37.5 27.2666 37.5 28.75C37.4977 30.7384 36.7068 32.6448 35.3008 34.0508C33.8948 35.4568 31.9884 36.2477 30 36.25Z" fill="white"/>
<path d="M30 21.875C28.6403 21.875 27.3111 22.2782 26.1805 23.0336C25.0499 23.7891 24.1687 24.8628 23.6483 26.119C23.128 27.3753 22.9918 28.7576 23.2571 30.0912C23.5224 31.4249 24.1772 32.6499 25.1386 33.6113C26.1001 34.5728 27.3251 35.2276 28.6588 35.4929C29.9924 35.7582 31.3747 35.622 32.631 35.1017C33.8872 34.5813 34.9609 33.7001 35.7164 32.5695C36.4718 31.4389 36.875 30.1097 36.875 28.75C36.8729 26.9273 36.148 25.1798 34.8591 23.8909C33.5702 22.6021 31.8227 21.8771 30 21.875ZM30 34.375C28.8875 34.375 27.8 34.0451 26.8749 33.427C25.9499 32.8089 25.2289 31.9304 24.8032 30.9026C24.3774 29.8748 24.266 28.7438 24.4831 27.6526C24.7001 26.5615 25.2359 25.5592 26.0225 24.7725C26.8092 23.9859 27.8115 23.4501 28.9026 23.2331C29.9938 23.016 31.1248 23.1274 32.1526 23.5532C33.1804 23.9789 34.0589 24.6999 34.677 25.6249C35.2951 26.5499 35.625 27.6375 35.625 28.75C35.6234 30.2413 35.0302 31.6711 33.9757 32.7256C32.9211 33.7802 31.4913 34.3733 30 34.375Z" fill="white"/>
<path d="M30.625 25H29.375V29.0088L32.0581 31.6919L32.9419 30.8081L30.625 28.4912V25Z" fill="white"/>
</svg>
