<svg width="38" height="38" viewBox="0 0 38 38" fill="none" xmlns="http://www.w3.org/2000/svg">
<path d="M30.0731 1.52954C29.7151 1.52954 29.3464 1.57585 28.9783 1.6667L29.2615 2.81917C31.5064 2.26817 33.464 3.97638 33.464 6.10854C33.464 11.1026 27.7771 14.7832 25.4062 15.4761L25.7393 16.6161C28.7508 15.7356 34.6521 11.6239 34.6527 6.10854C34.6527 3.58332 32.5983 1.52954 30.0731 1.52954Z" fill="white"/>
<path d="M4.53066 6.10849C4.53066 3.97633 6.48766 2.26574 8.73322 2.81971L9.01762 1.66664C6.0465 0.93633 3.34375 3.22583 3.34375 6.10849C3.34375 11.6244 9.24562 15.7361 12.2559 16.6161L12.589 15.4761C10.2176 14.7826 4.53066 11.1025 4.53066 6.10849Z" fill="white"/>
<path d="M21.0557 22.1023H16.9375C16.6097 22.1023 16.3438 22.3677 16.3438 22.696V24.9493C16.3438 25.128 16.4251 25.2985 16.5646 25.4113C16.6709 25.4974 16.8027 25.5431 16.9375 25.5431C16.9791 25.5431 17.0212 25.5383 17.0628 25.5294C18.2859 25.2652 19.7079 25.2652 20.9305 25.5294C21.1062 25.5662 21.2891 25.5235 21.4286 25.4113C21.5682 25.2985 21.6495 25.1292 21.6495 24.9493V22.696C21.6495 22.3677 21.3841 22.1023 21.0557 22.1023ZM20.462 24.2416C19.5108 24.1104 18.4824 24.1098 17.5312 24.2422V23.2898V23.2892H20.462V24.2416Z" fill="white"/>
<path d="M27.0121 34.6191H10.9844C10.6566 34.6191 10.3906 34.8845 10.3906 35.2129V37.4062C10.3906 37.7345 10.6566 38 10.9844 38H27.0121C27.3404 38 27.6058 37.7345 27.6058 37.4062V35.2129C27.6058 34.8845 27.3404 34.6191 27.0121 34.6191ZM26.4183 36.8125H11.5781V35.8066H26.4183V36.8125Z" fill="white"/>
<path d="M25.9878 26.2539H12.0156C11.6879 26.2539 11.4219 26.5193 11.4219 26.8477V35.213C11.4219 35.5413 11.6879 35.8067 12.0156 35.8067H25.9878C26.3155 35.8067 26.5815 35.5407 26.5815 35.213V26.8477C26.5815 26.5193 26.3161 26.2539 25.9878 26.2539ZM25.394 34.6192H12.6094V27.4414H25.394V34.6192Z" fill="white"/>
<path d="M23.6133 28.6282H14.3906C14.0629 28.6282 13.7969 28.8936 13.7969 29.2219V32.8373C13.7969 33.1656 14.0629 33.431 14.3906 33.431H23.6133C23.9411 33.431 24.2071 33.165 24.2071 32.8373V29.2219C24.2071 28.8936 23.9417 28.6282 23.6133 28.6282ZM23.0196 32.2435H14.9844V29.8157H23.0196V32.2435Z" fill="white"/>
<path d="M29.4616 0.298656C29.2716 0.106281 29.0187 0 28.7491 0H9.24623C8.97785 0 8.72492 0.105687 8.53492 0.296875C8.34492 0.488656 8.24101 0.742188 8.2422 1.01175C8.24635 1.41609 8.26238 1.81391 8.28079 2.26694C8.29563 2.63269 8.31642 2.99487 8.34076 3.35528C8.63704 7.75259 9.61673 11.7705 11.1747 14.975C11.4039 15.4464 11.6515 15.9083 11.9098 16.3465C13.0997 18.3671 14.4623 19.8164 15.9615 20.6554C16.1189 20.7432 16.3059 20.7545 16.4698 20.6892C16.6075 20.694 16.7631 20.694 16.9377 20.694H21.5345C21.6016 20.7189 21.6722 20.7314 21.7429 20.7314C21.8426 20.7314 21.9424 20.7064 22.0332 20.656C23.5319 19.8176 24.8951 18.3677 26.085 16.3471C26.3415 15.9095 26.5885 15.4482 26.8189 14.9762C28.378 11.7699 29.3577 7.75141 29.6534 3.35588C29.6772 2.99547 29.6979 2.63447 29.7128 2.26575C29.73 1.85072 29.7466 1.43509 29.7508 1.01472C29.7544 0.745156 29.6516 0.491031 29.4616 0.298656ZM28.5265 2.21825C28.511 2.57391 28.492 2.92541 28.4683 3.27572C28.1833 7.52044 27.2434 11.3863 25.7507 14.456C25.5346 14.9002 25.3024 15.3342 25.0614 15.7445C24.0484 17.4646 22.8716 18.7601 21.6467 19.5059H16.9383C16.9394 19.5065 16.5393 19.5059 16.3487 19.5059C15.1232 18.7595 13.9464 17.4646 12.934 15.7439C12.6918 15.3324 12.4596 14.8996 12.2441 14.456C10.752 11.3875 9.81267 7.52163 9.52648 3.27572C9.50332 2.926 9.48314 2.57391 9.46651 2.16481C9.45345 1.84003 9.43979 1.51525 9.43385 1.1875H28.5603C28.5544 1.53366 28.5401 1.87566 28.5265 2.21825Z" fill="white"/>
<path d="M26.1352 2.57104C26.1257 2.75748 26.115 2.93323 26.1032 3.1072C25.8556 6.78608 25.0184 10.2536 23.7454 12.8708C23.5672 13.2366 23.3737 13.5988 23.17 13.9455C22.4664 15.1401 21.6779 16.0676 20.8906 16.6281L21.5794 17.5959C22.5021 16.9392 23.4052 15.8853 24.1937 14.5482C24.4133 14.1735 24.6223 13.784 24.8135 13.3904C26.1512 10.6383 27.03 7.01467 27.2883 3.18558C27.3002 3.00448 27.3108 2.82458 27.3215 2.63279L26.1352 2.57104Z" fill="white"/>
<path d="M21.0559 19.5063H16.9109C15.9117 19.5063 15.8125 21.4438 15.8125 21.4633C15.8125 21.4818 15.9289 23.2903 16.9377 23.2903H21.0832C22.0653 23.2903 22.1817 21.4818 22.1817 21.4633C22.1817 21.4438 22.0825 19.5063 21.0559 19.5063ZM20.8392 22.1028H17.1544C17.0772 21.9081 17.0018 21.5845 16.9994 21.4639C17.0012 21.3197 17.0873 20.923 17.1722 20.6938H20.8214C20.9069 20.923 20.9924 21.3197 20.9942 21.4628C20.9924 21.5845 20.9164 21.9087 20.8392 22.1028Z" fill="white"/>
<path d="M21.1822 24.3687C19.7952 24.0701 18.201 24.0689 16.8134 24.3687C14.8463 24.7944 13.6719 25.7213 13.6719 26.847C13.6719 27.1754 13.9379 27.4408 14.2656 27.4408H23.73C24.0578 27.4408 24.3238 27.1754 24.3238 26.847C24.3238 25.7207 23.1493 24.7944 21.1822 24.3687ZM15.2786 26.2533C15.6455 25.9772 16.2476 25.7065 17.064 25.5295C18.2877 25.2653 19.7097 25.2653 20.9311 25.5295C21.7481 25.7065 22.3501 25.9772 22.7171 26.2533H15.2786Z" fill="white"/>
</svg>
