<svg width="1186" height="146" viewBox="0 0 1186 146" fill="none" xmlns="http://www.w3.org/2000/svg">
<rect width="448" height="146" fill="#46B357"/>
<rect x="475" width="711" height="146" fill="black"/>
<path d="M518 114.062V29.3315H554.918C559.357 29.3315 563.351 30.1384 566.902 31.7524C570.533 33.3663 573.398 35.7872 575.496 39.015C577.675 42.1622 578.764 46.0759 578.764 50.7563C578.764 55.7595 577.634 59.9153 575.375 63.2239C573.196 66.5324 570.412 68.7112 567.023 69.7603C569.847 70.1637 572.389 71.3338 574.649 73.2705C576.989 75.1266 578.845 77.5878 580.217 80.6542C581.589 83.7207 582.275 87.1906 582.275 91.0641C582.275 99.053 579.854 104.903 575.012 108.615C570.251 112.247 563.916 114.062 556.008 114.062H518ZM533.736 99.5372H553.829C557.622 99.5372 560.487 98.6898 562.423 96.9952C564.36 95.3006 565.328 92.5973 565.328 88.8853C565.328 85.3346 564.199 82.712 561.939 81.0174C559.68 79.2421 556.976 78.3544 553.829 78.3544H533.736V99.5372ZM533.736 63.7081H551.771C558.308 63.7081 561.576 60.2381 561.576 53.2982C561.576 50.1511 560.688 47.8109 558.913 46.2777C557.218 44.6638 554.838 43.8568 551.771 43.8568H533.736V63.7081Z" fill="white"/>
<path d="M619.756 115.394C614.349 115.394 609.467 114.143 605.109 111.642C600.832 109.14 597.443 105.589 594.942 100.99C592.521 96.39 591.31 91.0237 591.31 84.8908C591.31 78.6772 592.521 73.3109 594.942 68.7919C597.443 64.1922 600.832 60.6416 605.109 58.14C609.467 55.5577 614.349 54.2666 619.756 54.2666C625.243 54.2666 630.125 55.5577 634.402 58.14C638.679 60.6416 642.028 64.1922 644.449 68.7919C646.95 73.3109 648.201 78.6772 648.201 84.8908C648.201 91.0237 646.95 96.39 644.449 100.99C642.028 105.589 638.679 109.14 634.402 111.642C630.125 114.143 625.243 115.394 619.756 115.394ZM619.756 101.595C623.629 101.595 626.776 100.183 629.197 97.3584C631.699 94.4533 632.949 90.2974 632.949 84.8908C632.949 79.4035 631.699 75.2476 629.197 72.4232C626.776 69.5182 623.629 68.0656 619.756 68.0656C615.882 68.0656 612.735 69.5182 610.314 72.4232C607.974 75.2476 606.804 79.4035 606.804 84.8908C606.804 90.2974 607.974 94.4533 610.314 97.3584C612.735 100.183 615.882 101.595 619.756 101.595Z" fill="white"/>
<path d="M684.77 115.394C679.363 115.394 674.481 114.143 670.123 111.642C665.846 109.14 662.457 105.589 659.956 100.99C657.535 96.39 656.324 91.0237 656.324 84.8908C656.324 78.6772 657.535 73.3109 659.956 68.7919C662.457 64.1922 665.846 60.6416 670.123 58.14C674.481 55.5577 679.363 54.2666 684.77 54.2666C690.257 54.2666 695.139 55.5577 699.416 58.14C703.693 60.6416 707.042 64.1922 709.463 68.7919C711.964 73.3109 713.215 78.6772 713.215 84.8908C713.215 91.0237 711.964 96.39 709.463 100.99C707.042 105.589 703.693 109.14 699.416 111.642C695.139 114.143 690.257 115.394 684.77 115.394ZM684.77 101.595C688.643 101.595 691.79 100.183 694.211 97.3584C696.713 94.4533 697.963 90.2974 697.963 84.8908C697.963 79.4035 696.713 75.2476 694.211 72.4232C691.79 69.5182 688.643 68.0656 684.77 68.0656C680.896 68.0656 677.749 69.5182 675.328 72.4232C672.988 75.2476 671.818 79.4035 671.818 84.8908C671.818 90.2974 672.988 94.4533 675.328 97.3584C677.749 100.183 680.896 101.595 684.77 101.595Z" fill="white"/>
<path d="M724.364 114.062V28H739.616V79.928L758.136 55.7191H776.292L755.231 81.9857L777.624 114.062H759.588L739.616 84.4066V114.062H724.364Z" fill="white"/>
<path d="M787.749 114.062V29.3315H803.485L826.483 69.2761L849.24 29.3315H865.096V114.062H849.118V56.5664L830.962 89.4905H821.762L803.606 56.5664V114.062H787.749Z" fill="white"/>
<path d="M900.134 114.789C893.759 115.112 888.433 113.74 884.156 110.673C879.96 107.607 877.862 103.168 877.862 97.3584C877.862 93.2429 879.072 89.7326 881.493 86.8275C883.995 83.8418 887.182 81.5419 891.056 79.928C895.01 78.2334 899.085 77.3457 903.281 77.265C905.137 77.1036 906.912 77.265 908.607 77.7492C910.302 78.1527 911.875 78.7175 913.328 79.4438V75.5704C913.328 72.1812 912.601 70.0024 911.149 69.034C909.696 67.985 907.639 67.4604 904.976 67.4604C901.506 67.4604 897.915 68.106 894.203 69.3971C890.571 70.6076 887.424 72.1812 884.761 74.1179L877.862 62.3766C881.251 60.2785 885.286 58.4225 889.966 56.8085C894.727 55.1139 899.73 54.2666 904.976 54.2666C912.48 54.2666 918.169 55.7998 922.043 58.8663C925.916 61.9327 927.853 67.5008 927.853 75.5704V100.99C927.853 102.684 928.216 103.653 928.942 103.895C929.749 104.137 931.484 103.854 934.147 103.047V112.368C932.856 112.933 931.242 113.498 929.306 114.062C927.369 114.547 925.23 114.789 922.89 114.789C918.129 114.789 915.103 113.175 913.812 109.947C910.1 112.771 905.54 114.385 900.134 114.789ZM899.771 101.716C904.048 101.474 907.437 100.667 909.938 99.2951C912.521 97.8425 913.731 95.8655 913.57 93.3639C913.489 91.5079 912.561 90.2974 910.786 89.7326C909.091 89.1677 906.993 88.966 904.491 89.1273C900.779 89.2887 897.834 90.2571 895.655 92.0324C893.476 93.727 892.427 95.5427 892.508 97.4794C892.589 98.8512 893.194 99.9406 894.324 100.748C895.534 101.474 897.35 101.797 899.771 101.716Z" fill="white"/>
<path d="M944.821 114.062V28H960.073V79.928L978.592 55.7191H996.749L975.687 81.9857L998.08 114.062H980.045L960.073 84.4066V114.062H944.821Z" fill="white"/>
<path d="M1028.05 115.394C1019.5 115.394 1012.56 112.892 1007.23 107.889C1001.91 102.805 999.244 95.1392 999.244 84.8908C999.244 78.5158 1000.41 73.0688 1002.75 68.5498C1005.17 63.9501 1008.48 60.4399 1012.68 58.019C1016.88 55.5174 1021.72 54.2666 1027.2 54.2666C1032.69 54.2666 1037.33 55.5981 1041.12 58.2611C1045 60.8433 1047.94 64.4343 1049.96 69.034C1051.98 73.6337 1052.99 78.9193 1052.99 84.8908V88.159H1014.25C1014.66 93.5656 1016.11 97.2777 1018.61 99.2951C1021.19 101.232 1024.42 102.2 1028.29 102.2C1031.84 102.2 1034.75 101.353 1037.01 99.6582C1039.27 97.9636 1041.29 95.4216 1043.06 92.0324L1054.2 99.9003C1051.05 105.468 1047.3 109.463 1042.94 111.884C1038.66 114.224 1033.7 115.394 1028.05 115.394ZM1014.86 76.5387H1037.98C1036.53 69.5989 1032.85 66.1289 1026.96 66.1289C1023.73 66.1289 1021.11 66.9359 1019.09 68.5498C1017.08 70.1637 1015.67 72.8267 1014.86 76.5387Z" fill="white"/>
<path d="M1065.16 114.062V55.7191H1078.83L1079.8 63.587C1081.25 60.7626 1083.47 58.5032 1086.46 56.8085C1089.45 55.1139 1092.59 54.2666 1095.9 54.2666C1097.27 54.2666 1098.52 54.3876 1099.65 54.6297C1100.78 54.7911 1101.75 54.9929 1102.56 55.235V70.0024C1101.35 69.5989 1100.06 69.3164 1098.69 69.155C1097.31 68.913 1095.62 68.7919 1093.6 68.7919C1089.89 68.7919 1086.74 70.0024 1084.16 72.4232C1081.66 74.7634 1080.41 78.2334 1080.41 82.833V114.062H1065.16Z" fill="white"/>
<path d="M1132.68 115.273C1128 115.273 1123.48 114.506 1119.12 112.973C1114.84 111.359 1110.97 108.737 1107.5 105.105L1116.82 94.8164C1121.42 99.6582 1126.99 102.079 1133.52 102.079C1136.59 102.079 1138.73 101.716 1139.94 100.99C1141.15 100.183 1141.75 98.7302 1141.75 96.6321C1141.75 95.7444 1141.43 94.9778 1140.79 94.3323C1140.22 93.606 1138.97 92.9604 1137.03 92.3955C1135.18 91.75 1132.35 91.0641 1128.56 90.3378C1122.67 89.208 1118.11 87.2713 1114.88 84.5277C1111.74 81.784 1110.16 77.6685 1110.16 72.1812C1110.16 68.5498 1111.13 65.4027 1113.07 62.7397C1115 59.996 1117.63 57.8979 1120.93 56.4454C1124.32 54.9122 1128.12 54.1456 1132.31 54.1456C1141.51 54.1456 1148.94 56.7278 1154.58 61.8924L1146.23 72.7864C1144.3 70.9304 1142.12 69.5989 1139.7 68.7919C1137.36 67.9043 1134.98 67.4604 1132.55 67.4604C1129.89 67.4604 1128.08 67.9043 1127.11 68.7919C1126.14 69.5989 1125.66 70.5672 1125.66 71.697C1125.66 72.5039 1125.9 73.2302 1126.38 73.8758C1126.87 74.5213 1127.91 75.1669 1129.53 75.8125C1131.14 76.3774 1133.64 77.0633 1137.03 77.8702C1143.73 79.4035 1148.77 81.7436 1152.16 84.8908C1155.63 87.9573 1157.37 92.0728 1157.37 97.2373C1157.37 103.29 1155.03 107.809 1150.35 110.794C1145.75 113.78 1139.86 115.273 1132.68 115.273Z" fill="white"/>
<path d="M44 115.031V30.2998H59.7358V100.506H103.191V115.031H44Z" fill="white"/>
<path d="M113.269 115.031V30.2998H171.008V44.8251H129.005V64.5554H167.376V79.0807H129.005V100.506H172.339V115.031H113.269Z" fill="white"/>
<path d="M219.654 117.089C211.988 117.089 205.169 115.273 199.198 111.642C193.307 108.01 188.667 102.886 185.278 96.269C181.969 89.5712 180.315 81.7033 180.315 72.6653C180.315 63.5467 181.969 55.6788 185.278 49.0617C188.667 42.3639 193.307 37.1994 199.198 33.568C205.169 29.856 211.988 28 219.654 28C226.11 28 232.041 29.1701 237.448 31.5103C242.854 33.7698 247.293 36.5538 250.762 39.8623L240.837 52.2088C238.577 49.6266 235.551 47.5285 231.759 45.9146C227.966 44.2199 223.931 43.3726 219.654 43.3726C214.893 43.3726 210.778 44.6234 207.308 47.125C203.918 49.5459 201.296 52.9351 199.44 57.2927C197.664 61.6503 196.777 66.7745 196.777 72.6653C196.777 78.4755 197.664 83.5593 199.44 87.9169C201.296 92.2745 203.918 95.7041 207.308 98.2057C210.778 100.627 214.893 101.837 219.654 101.837C223.366 101.837 226.392 101.514 228.732 100.869C231.073 100.142 233.05 99.2547 234.664 98.2057V81.8647H221.833V67.3394H250.641V108.615C246.526 111.359 241.725 113.457 236.237 114.91C230.831 116.362 225.303 117.089 219.654 117.089Z" fill="white"/>
<path d="M257.788 115.031L289.622 30.2998H303.543L335.377 115.031H317.584L311.895 98.2057H280.786L275.097 115.031H257.788ZM285.87 83.6804H306.932L296.522 52.9351L285.87 83.6804Z" fill="white"/>
<path d="M344.483 115.031V30.2998H360.219V100.506H403.674V115.031H344.483Z" fill="white"/>
</svg>
