<svg width="711" height="312" viewBox="0 0 711 312" fill="none" xmlns="http://www.w3.org/2000/svg">
<rect width="449" height="146" fill="#46B357"/>
<rect x="543" width="41" height="146" fill="#46B357"/>
<rect x="469" width="53" height="146" fill="#46B357"/>
<rect x="606" width="31" height="146" fill="#46B357"/>
<rect x="658" width="22" height="146" fill="#46B357"/>
<rect x="701" width="10" height="146" fill="#46B357"/>
<rect y="166" width="711" height="146" fill="black"/>
<path d="M36 280.062V195.331H72.9185C77.3568 195.331 81.3512 196.138 84.9019 197.752C88.5332 199.366 91.3979 201.787 93.496 205.015C95.6748 208.162 96.7642 212.076 96.7642 216.756C96.7642 221.759 95.6345 225.915 93.375 229.224C91.1962 232.532 88.4122 234.711 85.0229 235.76C87.8473 236.164 90.3892 237.334 92.6487 239.271C94.9889 241.127 96.8449 243.588 98.2167 246.654C99.5886 249.721 100.275 253.191 100.275 257.064C100.275 265.053 97.8536 270.903 93.0118 274.615C88.2508 278.247 81.9161 280.062 74.0079 280.062H36ZM51.7358 265.537H71.8291C75.6218 265.537 78.4865 264.69 80.4232 262.995C82.36 261.301 83.3283 258.597 83.3283 254.885C83.3283 251.335 82.1986 248.712 79.9391 247.017C77.6796 245.242 74.9762 244.354 71.8291 244.354H51.7358V265.537ZM51.7358 229.708H69.7713C76.3077 229.708 79.5759 226.238 79.5759 219.298C79.5759 216.151 78.6883 213.811 76.913 212.278C75.2183 210.664 72.8378 209.857 69.7713 209.857H51.7358V229.708Z" fill="white"/>
<path d="M137.756 281.394C132.349 281.394 127.467 280.143 123.109 277.642C118.832 275.14 115.443 271.589 112.942 266.99C110.521 262.39 109.31 257.024 109.31 250.891C109.31 244.677 110.521 239.311 112.942 234.792C115.443 230.192 118.832 226.642 123.109 224.14C127.467 221.558 132.349 220.267 137.756 220.267C143.243 220.267 148.125 221.558 152.402 224.14C156.679 226.642 160.028 230.192 162.449 234.792C164.95 239.311 166.201 244.677 166.201 250.891C166.201 257.024 164.95 262.39 162.449 266.99C160.028 271.589 156.679 275.14 152.402 277.642C148.125 280.143 143.243 281.394 137.756 281.394ZM137.756 267.595C141.629 267.595 144.776 266.183 147.197 263.358C149.699 260.453 150.949 256.297 150.949 250.891C150.949 245.403 149.699 241.248 147.197 238.423C144.776 235.518 141.629 234.066 137.756 234.066C133.882 234.066 130.735 235.518 128.314 238.423C125.974 241.248 124.804 245.403 124.804 250.891C124.804 256.297 125.974 260.453 128.314 263.358C130.735 266.183 133.882 267.595 137.756 267.595Z" fill="white"/>
<path d="M202.77 281.394C197.363 281.394 192.481 280.143 188.123 277.642C183.846 275.14 180.457 271.589 177.956 266.99C175.535 262.39 174.324 257.024 174.324 250.891C174.324 244.677 175.535 239.311 177.956 234.792C180.457 230.192 183.846 226.642 188.123 224.14C192.481 221.558 197.363 220.267 202.77 220.267C208.257 220.267 213.139 221.558 217.416 224.14C221.693 226.642 225.042 230.192 227.463 234.792C229.964 239.311 231.215 244.677 231.215 250.891C231.215 257.024 229.964 262.39 227.463 266.99C225.042 271.589 221.693 275.14 217.416 277.642C213.139 280.143 208.257 281.394 202.77 281.394ZM202.77 267.595C206.643 267.595 209.79 266.183 212.211 263.358C214.713 260.453 215.963 256.297 215.963 250.891C215.963 245.403 214.713 241.248 212.211 238.423C209.79 235.518 206.643 234.066 202.77 234.066C198.896 234.066 195.749 235.518 193.328 238.423C190.988 241.248 189.818 245.403 189.818 250.891C189.818 256.297 190.988 260.453 193.328 263.358C195.749 266.183 198.896 267.595 202.77 267.595Z" fill="white"/>
<path d="M242.364 280.062V194H257.616V245.928L276.136 221.719H294.292L273.231 247.986L295.624 280.062H277.588L257.616 250.407V280.062H242.364Z" fill="white"/>
<path d="M305.749 280.062V195.331H321.485L344.483 235.276L367.24 195.331H383.096V280.062H367.118V222.566L348.962 255.49H339.762L321.606 222.566V280.062H305.749Z" fill="white"/>
<path d="M418.134 280.789C411.759 281.112 406.433 279.74 402.156 276.673C397.96 273.607 395.862 269.168 395.862 263.358C395.862 259.243 397.072 255.733 399.493 252.828C401.995 249.842 405.182 247.542 409.056 245.928C413.01 244.233 417.085 243.346 421.281 243.265C423.137 243.104 424.912 243.265 426.607 243.749C428.302 244.153 429.875 244.718 431.328 245.444V241.57C431.328 238.181 430.601 236.002 429.149 235.034C427.696 233.985 425.639 233.46 422.976 233.46C419.506 233.46 415.915 234.106 412.203 235.397C408.571 236.608 405.424 238.181 402.761 240.118L395.862 228.377C399.251 226.278 403.286 224.422 407.966 222.809C412.727 221.114 417.73 220.267 422.976 220.267C430.48 220.267 436.169 221.8 440.043 224.866C443.916 227.933 445.853 233.501 445.853 241.57V266.99C445.853 268.684 446.216 269.653 446.942 269.895C447.749 270.137 449.484 269.854 452.147 269.047V278.368C450.856 278.933 449.242 279.498 447.306 280.062C445.369 280.547 443.23 280.789 440.89 280.789C436.129 280.789 433.103 279.175 431.812 275.947C428.1 278.771 423.54 280.385 418.134 280.789ZM417.771 267.716C422.048 267.474 425.437 266.667 427.938 265.295C430.521 263.843 431.731 261.865 431.57 259.364C431.489 257.508 430.561 256.297 428.786 255.733C427.091 255.168 424.993 254.966 422.491 255.127C418.779 255.289 415.834 256.257 413.655 258.032C411.476 259.727 410.427 261.543 410.508 263.479C410.589 264.851 411.194 265.941 412.324 266.748C413.534 267.474 415.35 267.797 417.771 267.716Z" fill="white"/>
<path d="M462.821 280.062V194H478.073V245.928L496.592 221.719H514.749L493.687 247.986L516.08 280.062H498.045L478.073 250.407V280.062H462.821Z" fill="white"/>
<path d="M546.052 281.394C537.498 281.394 530.558 278.892 525.232 273.889C519.907 268.805 517.244 261.139 517.244 250.891C517.244 244.516 518.414 239.069 520.754 234.55C523.175 229.95 526.483 226.44 530.679 224.019C534.876 221.517 539.717 220.267 545.205 220.267C550.692 220.267 555.332 221.598 559.125 224.261C562.998 226.843 565.944 230.434 567.961 235.034C569.978 239.634 570.987 244.919 570.987 250.891V254.159H532.253C532.657 259.566 534.109 263.278 536.611 265.295C539.193 267.232 542.421 268.2 546.294 268.2C549.845 268.2 552.75 267.353 555.009 265.658C557.269 263.964 559.286 261.422 561.062 258.032L572.198 265.9C569.05 271.468 565.298 275.463 560.941 277.884C556.664 280.224 551.701 281.394 546.052 281.394ZM532.858 242.539H555.978C554.525 235.599 550.854 232.129 544.963 232.129C541.735 232.129 539.112 232.936 537.095 234.55C535.077 236.164 533.665 238.827 532.858 242.539Z" fill="white"/>
<path d="M583.156 280.062V221.719H596.834L597.802 229.587C599.255 226.763 601.474 224.503 604.46 222.809C607.445 221.114 610.593 220.267 613.901 220.267C615.273 220.267 616.524 220.388 617.654 220.63C618.783 220.791 619.752 220.993 620.559 221.235V236.002C619.348 235.599 618.057 235.316 616.685 235.155C615.313 234.913 613.619 234.792 611.601 234.792C607.889 234.792 604.742 236.002 602.16 238.423C599.658 240.763 598.408 244.233 598.408 248.833V280.062H583.156Z" fill="white"/>
<path d="M650.676 281.273C645.996 281.273 641.477 280.506 637.119 278.973C632.842 277.359 628.969 274.737 625.499 271.105L634.819 260.816C639.419 265.658 644.987 268.079 651.523 268.079C654.59 268.079 656.728 267.716 657.939 266.99C659.149 266.183 659.754 264.73 659.754 262.632C659.754 261.744 659.431 260.978 658.786 260.332C658.221 259.606 656.97 258.96 655.034 258.396C653.177 257.75 650.353 257.064 646.56 256.338C640.67 255.208 636.11 253.271 632.882 250.528C629.735 247.784 628.162 243.668 628.162 238.181C628.162 234.55 629.13 231.403 631.067 228.74C633.003 225.996 635.626 223.898 638.935 222.445C642.324 220.912 646.117 220.146 650.313 220.146C659.512 220.146 666.936 222.728 672.585 227.892L664.233 238.786C662.296 236.93 660.117 235.599 657.696 234.792C655.356 233.904 652.976 233.46 650.555 233.46C647.892 233.46 646.076 233.904 645.108 234.792C644.139 235.599 643.655 236.567 643.655 237.697C643.655 238.504 643.897 239.23 644.382 239.876C644.866 240.521 645.915 241.167 647.529 241.812C649.143 242.377 651.644 243.063 655.034 243.87C661.731 245.403 666.775 247.744 670.164 250.891C673.634 253.957 675.369 258.073 675.369 263.237C675.369 269.29 673.029 273.809 668.348 276.794C663.749 279.78 657.858 281.273 650.676 281.273Z" fill="white"/>
<path d="M36 115.031V30.2998H51.7358V100.506H95.1906V115.031H36Z" fill="white"/>
<path d="M109.269 115.031V30.2998H167.008V44.8251H125.005V64.5554H163.376V79.0807H125.005V100.506H168.339V115.031H109.269Z" fill="white"/>
<path d="M219.654 117.089C211.988 117.089 205.169 115.273 199.198 111.642C193.307 108.01 188.667 102.886 185.278 96.269C181.969 89.5712 180.315 81.7033 180.315 72.6653C180.315 63.5467 181.969 55.6788 185.278 49.0617C188.667 42.3639 193.307 37.1994 199.198 33.568C205.169 29.856 211.988 28 219.654 28C226.11 28 232.041 29.1701 237.448 31.5103C242.854 33.7698 247.293 36.5538 250.762 39.8623L240.837 52.2088C238.577 49.6266 235.551 47.5285 231.759 45.9146C227.966 44.2199 223.931 43.3726 219.654 43.3726C214.893 43.3726 210.778 44.6234 207.308 47.125C203.918 49.5459 201.296 52.9351 199.44 57.2927C197.664 61.6503 196.777 66.7745 196.777 72.6653C196.777 78.4755 197.664 83.5593 199.44 87.9169C201.296 92.2745 203.918 95.7041 207.308 98.2057C210.778 100.627 214.893 101.837 219.654 101.837C223.366 101.837 226.392 101.514 228.732 100.869C231.073 100.142 233.05 99.2547 234.664 98.2057V81.8647H221.833V67.3394H250.641V108.615C246.526 111.359 241.725 113.457 236.237 114.91C230.831 116.362 225.303 117.089 219.654 117.089Z" fill="white"/>
<path d="M261.788 115.031L293.622 30.2998H307.543L339.377 115.031H321.584L315.895 98.2057H284.786L279.097 115.031H261.788ZM289.87 83.6804H310.932L300.522 52.9351L289.87 83.6804Z" fill="white"/>
<path d="M352.483 115.031V30.2998H368.219V100.506H411.674V115.031H352.483Z" fill="white"/>
</svg>
