<svg width="50" height="50" viewBox="0 0 50 50" fill="none" xmlns="http://www.w3.org/2000/svg">
<path d="M25 49.2188C38.3756 49.2188 49.2188 38.3756 49.2188 25C49.2188 11.6244 38.3756 0.78125 25 0.78125C11.6244 0.78125 0.78125 11.6244 0.78125 25C0.78125 38.3756 11.6244 49.2188 25 49.2188Z" fill="#DEE0E7"/>
<path d="M44.4337 39.4334C42.1749 36.4094 39.242 33.9539 35.8679 32.2621C32.4939 30.5702 28.7717 29.6887 24.9972 29.6875C21.2228 29.6863 17.5 30.5655 14.1249 32.2553C10.7498 33.945 7.81532 36.3986 5.55469 39.4213C7.80382 42.4592 10.7335 44.9279 14.1088 46.6293C17.4842 48.3307 21.2112 49.2176 24.9911 49.2188C28.771 49.22 32.4986 48.3354 35.875 46.6361C39.2514 44.9368 42.1826 42.47 44.4337 39.4334Z" fill="#B7BBC4"/>
<path d="M25 26.5625C30.1777 26.5625 34.375 22.3652 34.375 17.1875C34.375 12.0098 30.1777 7.8125 25 7.8125C19.8223 7.8125 15.625 12.0098 15.625 17.1875C15.625 22.3652 19.8223 26.5625 25 26.5625Z" fill="#B7BBC4"/>
</svg>
