<svg width="0" height="0" class="hidden">
  <symbol xmlns="http://www.w3.org/2000/svg" viewBox="0 0 19 18" id="ic_arrow">
    <path d="M10.302 17.7502L18.7415 9.60224C19.0862 9.26924 19.0862 8.73076 18.7415 8.39776L10.302 0.249754C9.95736 -0.0832513 9.4001 -0.0832513 9.05548 0.249754L8.54954 0.738634C8.20492 1.07164 8.20492 1.62429 8.56421 1.95021L14.8334 7.79551H0.879885C0.395948 7.79551 0 8.17811 0 8.64574V9.35426C0 9.82189 0.395948 10.2045 0.879885 10.2045H14.8334L8.55688 16.0498C8.20492 16.3828 8.19759 16.9284 8.54221 17.2614L9.04814 17.7502C9.4001 18.0833 9.95736 18.0833 10.302 17.7502Z" fill="currentColor"></path>
  </symbol>
  <symbol xmlns="http://www.w3.org/2000/svg" viewBox="0 0 26 26" id="ic_comments">
    <path d="M6.5 24.375C6.38056 24.375 6.26031 24.3482 6.14738 24.2946C5.86706 24.1589 5.6875 23.8753 5.6875 23.5625V19.5H3.25C1.90612 19.5 0.8125 18.4064 0.8125 17.0625V4.0625C0.8125 2.71862 1.90612 1.625 3.25 1.625H22.75C24.0939 1.625 25.1875 2.71862 25.1875 4.0625V17.0625C25.1875 18.4064 24.0939 19.5 22.75 19.5H12.8789L7.00781 24.1971C6.86075 24.3149 6.68119 24.375 6.5 24.375ZM3.25 3.25C2.8015 3.25 2.4375 3.61481 2.4375 4.0625V17.0625C2.4375 17.5102 2.8015 17.875 3.25 17.875H6.5C6.94931 17.875 7.3125 18.2382 7.3125 18.6875V21.8725L12.0859 18.0529C12.2306 17.9376 12.4085 17.875 12.5938 17.875H22.75C23.1985 17.875 23.5625 17.5102 23.5625 17.0625V4.0625C23.5625 3.61481 23.1985 3.25 22.75 3.25H3.25Z" fill="currentColor"></path>
    <path d="M19.5 9.75H6.5C6.05069 9.75 5.6875 9.386 5.6875 8.9375C5.6875 8.489 6.05069 8.125 6.5 8.125H19.5C19.9493 8.125 20.3125 8.489 20.3125 8.9375C20.3125 9.386 19.9493 9.75 19.5 9.75Z" fill="currentColor"></path>
    <path d="M13 13H6.5C6.05069 13 5.6875 12.636 5.6875 12.1875C5.6875 11.739 6.05069 11.375 6.5 11.375H13C13.4493 11.375 13.8125 11.739 13.8125 12.1875C13.8125 12.636 13.4493 13 13 13Z" fill="currentColor"></path>
  </symbol>
  <symbol xmlns="http://www.w3.org/2000/svg" viewBox="0 0 19 19" id="ic_copy">
    <path d="M15.4375 1.1875H5.49219C5.41055 1.1875 5.34375 1.2543 5.34375 1.33594V2.375C5.34375 2.45664 5.41055 2.52344 5.49219 2.52344H14.6953V15.2891C14.6953 15.3707 14.7621 15.4375 14.8438 15.4375H15.8828C15.9645 15.4375 16.0312 15.3707 16.0312 15.2891V1.78125C16.0312 1.45283 15.7659 1.1875 15.4375 1.1875ZM13.0625 3.5625H3.5625C3.23408 3.5625 2.96875 3.82783 2.96875 4.15625V14.0032C2.96875 14.1609 3.03184 14.3112 3.14316 14.4226L6.35869 17.6381C6.39951 17.6789 6.4459 17.7123 6.496 17.7401V17.7754H6.57393C6.63887 17.7995 6.70752 17.8125 6.77803 17.8125H13.0625C13.3909 17.8125 13.6562 17.5472 13.6562 17.2188V4.15625C13.6562 3.82783 13.3909 3.5625 13.0625 3.5625ZM6.49414 15.8865L4.89658 14.2871H6.49414V15.8865ZM12.3203 16.4766H7.68164V13.8418C7.68164 13.4317 7.34951 13.0996 6.93945 13.0996H4.30469V4.89844H12.3203V16.4766Z" fill="currentColor"></path>
  </symbol>
  <symbol xmlns="http://www.w3.org/2000/svg" viewBox="0 0 35 35" id="ic_facebook">
    <path d="M34.5 17.5C34.5 26.8888 26.8888 34.5 17.5 34.5C8.11116 34.5 0.5 26.8888 0.5 17.5C0.5 8.11116 8.11116 0.5 17.5 0.5C26.8888 0.5 34.5 8.11116 34.5 17.5Z" stroke="currentColor" fill="none"></path>
    <path d="M21.9368 15.8444L21.6467 18.2806C21.6342 18.3938 21.5802 18.4983 21.4951 18.574C21.4101 18.6496 21.3 18.6912 21.1862 18.6905H18.6533V25.9207C18.6539 26.007 18.6203 26.0901 18.56 26.1518C18.4996 26.2135 18.4172 26.2488 18.3309 26.25H15.7497C15.7067 26.2494 15.6643 26.2403 15.6249 26.2234C15.5854 26.2064 15.5497 26.1818 15.5198 26.151C15.4899 26.1202 15.4663 26.0838 15.4504 26.0439C15.4345 26.004 15.4267 25.9614 15.4273 25.9184L15.4411 18.6905H13.523C13.4009 18.6905 13.2837 18.6419 13.1974 18.5556C13.111 18.4692 13.0625 18.3521 13.0625 18.2299V15.7937C13.0625 15.6716 13.111 15.5545 13.1974 15.4681C13.2837 15.3817 13.4009 15.3332 13.523 15.3332H15.4296V12.9707C15.4296 10.2375 17.0553 8.75 19.4362 8.75H21.3865C21.5086 8.75 21.6258 8.79852 21.7121 8.88488C21.7985 8.97125 21.847 9.08839 21.847 9.21053V11.2622C21.847 11.3843 21.7985 11.5014 21.7121 11.5878C21.6258 11.6742 21.5086 11.7227 21.3865 11.7227H20.1914C18.8974 11.7434 18.6533 12.3628 18.6533 13.2885V15.3263H21.4878C21.5525 15.3274 21.6162 15.3421 21.6748 15.3695C21.7334 15.3969 21.7856 15.4363 21.8279 15.4852C21.8703 15.534 21.9019 15.5913 21.9206 15.6532C21.9394 15.7151 21.9449 15.7802 21.9368 15.8444Z" fill="currentColor"></path>
  </symbol>
  <symbol xmlns="http://www.w3.org/2000/svg" viewBox="0 0 26 26" id="ic_gift">
    <path d="M25.4348 6.76766H17.4788C18.1842 6.4093 18.8658 5.96847 19.4152 5.41906C20.6564 4.17787 20.6564 2.15891 19.4152 0.91766C18.2124 -0.285146 16.1166 -0.286263 14.9138 0.91766C14.0276 1.80389 13.4024 3.02254 13 4.15522C12.5976 3.02254 11.9724 1.80389 11.0862 0.91766C9.88223 -0.286263 7.78527 -0.285146 6.58475 0.91766C5.34356 2.15886 5.34356 4.17782 6.58475 5.41906C7.13416 5.96847 7.81579 6.4093 8.5212 6.76766H0.565195C0.253195 6.76766 0 7.02086 0 7.33286V11.8546C0 12.1666 0.253195 12.4198 0.565195 12.4198H1.13039V25.4198C1.13039 25.7318 1.38359 25.985 1.69559 25.985H10.7391H15.2608H24.3043C24.6163 25.985 24.8695 25.7318 24.8695 25.4198V12.4198H25.4347C25.7467 12.4198 25.9998 12.1666 25.9998 11.8546V7.33286C26 7.02086 25.7468 6.76766 25.4348 6.76766ZM10.1739 24.8546H2.26088V12.4198H10.1739V24.8546ZM10.1739 11.2894H1.69564H1.13044V7.8981H10.1739V11.2894ZM7.384 4.61982C6.58364 3.81945 6.58364 2.51722 7.384 1.71686C7.77172 1.32797 8.2872 1.11545 8.83548 1.11545C9.38377 1.11545 9.89808 1.32797 10.287 1.71686C11.7396 3.16945 12.4224 5.86553 12.4382 6.74953C12.4382 6.75517 12.437 6.76309 12.437 6.76761H12.3749C11.4558 6.73603 8.81852 6.05322 7.384 4.61982ZM14.6956 24.8546H11.3043V12.4198H14.6956V24.8546ZM14.6956 11.2894H11.3043V7.8981H12.4687H12.4698H13.5302H13.5313H14.6956V11.2894ZM13.6251 6.76766H13.563C13.563 6.76314 13.5618 6.75522 13.5618 6.74958C13.5777 5.86558 14.2604 3.1695 15.713 1.71691C16.1019 1.32802 16.6162 1.1155 17.1645 1.1155C17.7128 1.1155 18.2283 1.32802 18.616 1.71691C19.4164 2.51727 19.4164 3.8195 18.616 4.61987C17.1815 6.05322 14.5442 6.73603 13.6251 6.76766ZM23.7391 24.8546H15.8261V12.4198H23.7391V24.8546ZM24.8696 11.2894H24.3044H15.8261V7.8981H24.8696V11.2894Z" fill="currentColor"></path>
  </symbol>
  <symbol xmlns="http://www.w3.org/2000/svg" viewBox="0 0 35 35" id="ic_instagram">
    <path d="M34.5 17.5C34.5 26.8888 26.8888 34.5 17.5 34.5C8.11116 34.5 0.5 26.8888 0.5 17.5C0.5 8.11116 8.11116 0.5 17.5 0.5C26.8888 0.5 34.5 8.11116 34.5 17.5Z" stroke="currentColor" fill="none"></path>
    <path d="M21.0368 8.75H13.9632C12.5811 8.75183 11.2562 9.30166 10.2789 10.2789C9.30166 11.2562 8.75183 12.5811 8.75 13.9632V21.0368C8.75183 22.4189 9.30166 23.7438 10.2789 24.7211C11.2562 25.6983 12.5811 26.2482 13.9632 26.25H21.0368C22.4191 26.2488 23.7444 25.6991 24.7218 24.7218C25.6991 23.7444 26.2488 22.4191 26.25 21.0368V13.9632C26.2482 12.5811 25.6983 11.2562 24.7211 10.2789C23.7438 9.30166 22.4189 8.75183 21.0368 8.75ZM24.4908 21.0368C24.4908 21.9529 24.1269 22.8314 23.4792 23.4792C22.8314 24.1269 21.9529 24.4908 21.0368 24.4908H13.9632C13.0471 24.4908 12.1686 24.1269 11.5208 23.4792C10.8731 22.8314 10.5092 21.9529 10.5092 21.0368V13.9632C10.5092 13.0471 10.8731 12.1686 11.5208 11.5208C12.1686 10.8731 13.0471 10.5092 13.9632 10.5092H21.0368C21.9529 10.5092 22.8314 10.8731 23.4792 11.5208C24.1269 12.1686 24.4908 13.0471 24.4908 13.9632V21.0368Z" fill="currentColor"></path>
    <path d="M17.498 12.9751C16.6025 12.9746 15.7269 13.2398 14.9821 13.7371C14.2373 14.2343 13.6567 14.9413 13.3138 15.7686C12.9709 16.5959 12.881 17.5063 13.0556 18.3847C13.2302 19.263 13.6614 20.0699 14.2947 20.7031C14.9279 21.3364 15.7348 21.7676 16.6131 21.9422C17.4915 22.1168 18.4019 22.0269 19.2292 21.684C20.0565 21.3411 20.7635 20.7605 21.2607 20.0157C21.758 19.2709 22.0232 18.3953 22.0227 17.4998C22.0215 16.3001 21.5444 15.15 20.6961 14.3017C19.8478 13.4534 18.6977 12.9763 17.498 12.9751ZM17.498 20.2629C16.9515 20.2629 16.4173 20.1009 15.9629 19.7973C15.5085 19.4936 15.1543 19.0621 14.9452 18.5572C14.7361 18.0523 14.6813 17.4967 14.788 16.9607C14.8946 16.4247 15.1577 15.9324 15.5442 15.5459C15.9306 15.1595 16.423 14.8963 16.959 14.7897C17.495 14.6831 18.0505 14.7378 18.5554 14.9469C19.0603 15.1561 19.4919 15.5102 19.7955 15.9646C20.0991 16.419 20.2612 16.9533 20.2612 17.4998C20.2612 18.2326 19.9701 18.9354 19.4519 19.4536C18.9337 19.9718 18.2309 20.2629 17.498 20.2629Z" fill="currentColor"></path>
    <path d="M22.0488 14.0946C22.6668 14.0946 23.1678 13.5936 23.1678 12.9755C23.1678 12.3575 22.6668 11.8564 22.0488 11.8564C21.4307 11.8564 20.9297 12.3575 20.9297 12.9755C20.9297 13.5936 21.4307 14.0946 22.0488 14.0946Z" fill="currentColor"></path>
  </symbol>
  <symbol fill="none" xmlns="http://www.w3.org/2000/svg" viewBox="0 0 28 20" id="ic_menu">
    <path fill-rule="evenodd" clip-rule="evenodd" d="M0 1C0 0.447715 0.447715 0 1 0H27C27.5523 0 28 0.447715 28 1C28 1.55228 27.5523 2 27 2H1C0.447715 2 0 1.55228 0 1ZM0 10C0 9.44771 0.447715 9 1 9H27C27.5523 9 28 9.44771 28 10C28 10.5523 27.5523 11 27 11H1C0.447715 11 0 10.5523 0 10ZM1 18C0.447715 18 0 18.4477 0 19C0 19.5523 0.447715 20 1 20H27C27.5523 20 28 19.5523 28 19C28 18.4477 27.5523 18 27 18H1Z" fill="black"></path>
  </symbol>
  <symbol xmlns="http://www.w3.org/2000/svg" viewBox="0 0 18 19" id="ic_select_arrow">
    <path d="M8.10891 14.5255L0.36944 6.35581C-0.123139 5.83612 -0.123138 4.99352 0.36944 4.47408C0.86158 3.9546 1.65978 3.9546 2.15188 4.47408L9.00013 11.703L15.8481 4.47429C16.3405 3.95481 17.1386 3.95481 17.6307 4.47429C18.1231 4.99378 18.1231 5.83633 17.6307 6.35602L9.89115 14.5257C9.64497 14.7855 9.32265 14.9152 9.00017 14.9152C8.67754 14.9152 8.35498 14.7852 8.10891 14.5255Z" fill="currentColor"></path>
  </symbol>
  <symbol xmlns="http://www.w3.org/2000/svg" viewBox="0 0 37.21 35.4" id="ic_rating">
    <path d="M15.2,40.6a1.42,1.42,0,0,1-.6-.2,1,1,0,0,1-.4-1.1l3.9-12L7.9,19.8A1,1,0,0,1,8.5,18H21.2L25,5.9a1,1,0,0,1,1-.7,1.09,1.09,0,0,1,1,.7L30.9,18H43.6a1.1,1.1,0,0,1,1,.6.84.84,0,0,1-.4,1.1L34,27.1l3.9,12a1,1,0,0,1-.4,1.1,1.05,1.05,0,0,1-1.2,0L26,33,15.8,40.4A1.42,1.42,0,0,1,15.2,40.6ZM26,30.7a1.42,1.42,0,0,1,.6.2L34.9,37l-3.2-9.8a1,1,0,0,1,.4-1.1L40.4,20H30.1a1.2,1.2,0,0,1-1-.7L26,9.5l-3.2,9.8a1,1,0,0,1-1,.7H11.5l8.3,6.1a1,1,0,0,1,.4,1.1L17.1,37l8.3-6.1A1.42,1.42,0,0,1,26,30.7Z" transform="translate(-7.46 -5.2)" fill="currentColor"></path>
  </symbol>
  <symbol xmlns="http://www.w3.org/2000/svg" viewBox="0 0 35 35" id="ic_skype">
    <path d="M34.5 17.5C34.5 26.8888 26.8888 34.5 17.5 34.5C8.11116 34.5 0.5 26.8888 0.5 17.5C0.5 8.11116 8.11116 0.5 17.5 0.5C26.8888 0.5 34.5 8.11116 34.5 17.5Z" stroke="currentColor" fill="none"></path>
    <path d="M25.5466 18.8356C25.2724 18.445 25.1296 17.9773 25.139 17.5001C25.1386 16.271 24.8417 15.0601 24.2735 13.9703C23.7053 12.8804 22.8825 11.9437 21.8749 11.2397C20.8674 10.5357 19.7049 10.0852 18.4861 9.92636C17.2673 9.76754 16.0282 9.90511 14.8739 10.3274C14.4313 10.4922 13.9483 10.5148 13.4923 10.3919C13.0786 10.2752 12.6477 10.2316 12.2189 10.2629C11.5559 10.3091 10.9173 10.5317 10.3692 10.9076C9.82116 11.2836 9.38355 11.7992 9.10174 12.4011C8.81992 13.0031 8.70414 13.6694 8.76639 14.3311C8.82864 14.9928 9.06666 15.6258 9.45579 16.1646C9.72971 16.5553 9.87243 17.023 9.86335 17.5001C9.86373 18.7292 10.1606 19.9401 10.7289 21.03C11.2971 22.1198 12.1199 23.0565 13.1274 23.7605C14.135 24.4645 15.2975 24.9151 16.5163 25.0739C17.7351 25.2327 18.9742 25.0951 20.1285 24.6728C20.5711 24.508 21.0541 24.4855 21.5101 24.6083C22.0488 24.7613 22.6152 24.7909 23.167 24.695C23.7188 24.599 24.2418 24.38 24.6974 24.0541C25.1529 23.7282 25.5291 23.3039 25.7981 22.8127C26.0671 22.3214 26.222 21.7759 26.2512 21.2166C26.2964 20.3656 26.0476 19.525 25.5466 18.8356ZM17.5012 16.061L17.7821 16.1301C19.3203 16.4962 21.6459 17.0511 21.6459 19.6139C21.6731 20.1932 21.5193 20.7665 21.2056 21.2543C20.892 21.7421 20.4342 22.12 19.8959 22.3356C19.131 22.6212 18.317 22.7519 17.5012 22.7202H17.393C14.9775 22.7202 13.4532 20.8412 13.3887 20.7606C13.275 20.6454 13.1868 20.5075 13.13 20.3559C13.0732 20.2043 13.049 20.0424 13.059 19.8808C13.0689 19.7193 13.1129 19.5616 13.1879 19.4181C13.263 19.2747 13.3675 19.1487 13.4945 19.0483C13.6216 18.948 13.7684 18.8756 13.9253 18.8358C14.0822 18.7961 14.2458 18.7898 14.4053 18.8176C14.5648 18.8453 14.7167 18.9064 14.851 18.9968C14.9853 19.0872 15.099 19.2049 15.1847 19.3422C15.1847 19.3422 16.1058 20.3945 17.393 20.4337H17.5012C18.9657 20.4567 19.3064 20.0054 19.3433 19.6208C19.3986 19.1603 19.014 18.8195 17.5012 18.435L17.2502 18.3728C15.7834 18.0251 13.566 17.4978 13.566 15.1376C13.566 14.4146 13.8538 12.0935 17.4966 12.006H17.713C20.1423 12.006 21.5768 13.9195 21.6275 14.0024C21.7793 14.2478 21.8334 14.5411 21.7792 14.8245C21.7249 15.1078 21.5663 15.3605 21.3347 15.5324C21.1031 15.7044 20.8154 15.7832 20.5284 15.7531C20.2415 15.7231 19.9764 15.5864 19.7854 15.3702C19.2386 14.7863 18.5062 14.4103 17.713 14.3064L17.5012 14.2764C16.6492 14.2534 15.8663 14.5758 15.8663 15.0317C15.8663 15.5291 16.1012 15.7179 17.5012 16.061Z" fill="currentColor"></path>
  </symbol>
  <symbol xmlns="http://www.w3.org/2000/svg" viewBox="0 0 14 14" id="ic_star">
    <path d="M13.3908 4.8842L9.53548 4.51965C9.29244 4.49755 9.08243 4.34289 8.98312 4.1109L7.60222 0.763632C7.38127 0.211276 6.59681 0.211276 6.37587 0.763632L5.00602 4.1109C4.91764 4.34289 4.69669 4.49755 4.45366 4.51965L0.598184 4.8842C0.0237291 4.93944 -0.208262 5.6575 0.222579 6.04415L3.12799 8.59603C3.31579 8.76173 3.39313 9.00477 3.33789 9.24781L2.46516 12.827C2.33259 13.3905 2.94019 13.8543 3.44836 13.5562L6.6631 11.667C6.87299 11.5455 7.12708 11.5455 7.33698 11.667L10.5518 13.5562C11.06 13.8543 11.6676 13.4015 11.5349 12.827L10.6732 9.24781C10.618 9.00477 10.6953 8.76173 10.8831 8.59603L13.7885 6.04415C14.2083 5.6575 13.9653 4.93944 13.3908 4.8842Z" fill="currentColor"></path>
  </symbol>
  <symbol xmlns="http://www.w3.org/2000/svg" viewBox="0 0 35 35" id="ic_twitter">
    <path d="M34.5 17.5C34.5 26.8888 26.8888 34.5 17.5 34.5C8.11116 34.5 0.5 26.8888 0.5 17.5C0.5 8.11116 8.11116 0.5 17.5 0.5C26.8888 0.5 34.5 8.11116 34.5 17.5Z" stroke="currentColor" fill="none"></path>
    <path d="M26.2149 12.204C25.8012 12.8254 25.2958 13.3805 24.7159 13.8504C24.6427 13.9114 24.5841 13.9878 24.5443 14.0743C24.5045 14.1607 24.4844 14.2549 24.4856 14.3501V14.4077C24.4788 15.6555 24.2496 16.8922 23.8086 18.0596C23.3542 19.2849 22.6792 20.4165 21.8168 21.3984C20.658 22.7176 19.1673 23.7027 17.4994 24.2514C16.4034 24.6071 15.2576 24.7851 14.1053 24.7787C12.2774 24.7785 10.482 24.2947 8.90139 23.3764C8.84475 23.3442 8.80017 23.2944 8.7744 23.2346C8.74864 23.1747 8.7431 23.1081 8.75863 23.0448C8.77457 22.9826 8.81088 22.9274 8.8618 22.8882C8.91271 22.849 8.97528 22.8279 9.03955 22.8284H9.47705C10.8662 22.8318 12.2247 22.4196 13.3777 21.6448C12.6905 21.5336 12.0474 21.2348 11.5193 20.7813C10.9911 20.3279 10.5983 19.7375 10.3843 19.0751C10.3733 19.0419 10.3713 19.0064 10.3785 18.9722C10.3857 18.9381 10.4018 18.9064 10.4252 18.8804C10.4486 18.8545 10.4784 18.8352 10.5117 18.8245C10.5449 18.8138 10.5804 18.812 10.6145 18.8195C10.8241 18.8589 11.0368 18.879 11.2501 18.8794H11.3307C10.6665 18.5743 10.105 18.0833 9.71394 17.4659C9.32288 16.8484 9.11903 16.1309 9.12705 15.4001C9.12729 15.3659 9.13638 15.3323 9.15343 15.3027C9.17049 15.2731 9.19493 15.2483 9.22437 15.231C9.25382 15.2136 9.28727 15.2041 9.32146 15.2035C9.35565 15.2028 9.38942 15.2111 9.41948 15.2274C9.68961 15.3782 9.97947 15.4906 10.2807 15.5613C9.68533 14.9723 9.30239 14.2023 9.19195 13.3721C9.08152 12.5419 9.24982 11.6986 9.67047 10.9744C9.68638 10.9466 9.70881 10.9231 9.73582 10.9058C9.76284 10.8886 9.79363 10.8782 9.82556 10.8755C9.85749 10.8727 9.8896 10.8778 9.91914 10.8902C9.94867 10.9027 9.97476 10.9221 9.99514 10.9468C10.8268 11.9765 11.8568 12.8288 13.024 13.4529C14.1913 14.0771 15.472 14.4605 16.7902 14.5804H16.8086C16.828 14.5798 16.847 14.5753 16.8646 14.5671C16.8822 14.559 16.8979 14.5473 16.9108 14.5329C16.9238 14.5185 16.9336 14.5015 16.9398 14.4832C16.946 14.4648 16.9483 14.4454 16.9468 14.4261C16.8954 13.964 16.925 13.4964 17.0343 13.0445C17.1828 12.4302 17.4878 11.8648 17.9195 11.4032C18.3513 10.9416 18.8951 10.5995 19.4981 10.4103C19.885 10.2894 20.2878 10.2273 20.6932 10.2261C21.6122 10.225 22.4999 10.56 23.1892 11.1679C23.2785 11.2477 23.3941 11.292 23.5139 11.2922C23.5528 11.2914 23.5914 11.286 23.629 11.2761C24.2767 11.1124 24.8972 10.8557 25.4711 10.5139C25.5055 10.4927 25.5455 10.4827 25.5858 10.4851C25.6261 10.4876 25.6646 10.5024 25.6961 10.5277C25.7277 10.5529 25.7506 10.5872 25.7618 10.626C25.7731 10.6647 25.7721 10.706 25.7589 10.7442C25.5673 11.347 25.2259 11.8913 24.7665 12.3261C25.1803 12.2274 25.5842 12.091 25.9731 11.9185C26.0115 11.9037 26.0535 11.9012 26.0934 11.9114C26.1332 11.9215 26.1689 11.9439 26.1955 11.9753C26.2221 12.0067 26.2383 12.0456 26.2417 12.0866C26.2452 12.1276 26.2358 12.1686 26.2149 12.204Z" fill="currentColor"></path>
  </symbol>
  <symbol xmlns="http://www.w3.org/2000/svg" viewBox="0 0 15 15" id="ic_view">
    <path d="M9.74804 7.49914C9.74804 8.69078 8.73974 9.65679 7.49593 9.65679C6.25213 9.65679 5.24383 8.69078 5.24383 7.49914C5.24383 6.30749 6.25213 5.34149 7.49593 5.34149C8.73974 5.34148 9.74804 6.3075 9.74804 7.49914ZM7.5 3.00659C6.21219 3.0123 4.87733 3.32582 3.6137 3.92605C2.67548 4.39008 1.76113 5.04475 0.967425 5.85282C0.5776 6.2653 0.0803875 6.86258 0 7.49984C0.0095 8.05186 0.601625 8.7332 0.967425 9.14688C1.71171 9.92321 2.60225 10.5596 3.6137 11.0741C4.79209 11.646 6.0964 11.9753 7.5 11.9936C8.78904 11.9878 10.1236 11.6707 11.3858 11.0741C12.3241 10.6101 13.2389 9.95494 14.0326 9.14688C14.4224 8.73439 14.9196 8.1371 15 7.49984C14.9905 6.94783 14.3984 6.26645 14.0326 5.85279C13.2883 5.07647 12.3973 4.44055 11.3858 3.92603C10.2081 3.35458 8.90053 3.02758 7.5 3.00659ZM7.49905 4.12219C9.45054 4.12219 11.0325 5.63462 11.0325 7.50033C11.0325 9.36603 9.45054 10.8785 7.49905 10.8785C5.54756 10.8785 3.96561 9.36602 3.96561 7.50033C3.96561 5.63462 5.54756 4.12219 7.49905 4.12219Z" fill="currentColor"></path>
  </symbol>
  <symbol xmlns="http://www.w3.org/2000/svg" viewBox="0 0 35 35" id="ic_youtube">
    <path d="M34.5 17.5C34.5 26.8888 26.8888 34.5 17.5 34.5C8.11116 34.5 0.5 26.8888 0.5 17.5C0.5 8.11116 8.11116 0.5 17.5 0.5C26.8888 0.5 34.5 8.11116 34.5 17.5Z" stroke="currentColor" fill="none"></path>
    <path d="M25.8409 13.2906C25.4909 12.2037 24.3327 11.5613 23.2574 11.4116C19.4243 11.0041 15.5589 11.0041 11.7258 11.4116C10.6597 11.5613 9.50147 12.213 9.15147 13.2906C8.60576 16.071 8.60576 18.9309 9.15147 21.7113C9.51068 22.7958 10.6689 23.4406 11.7442 23.5903C15.5774 23.9955 19.4426 23.9955 23.2758 23.5903C24.3419 23.4406 25.5002 22.7866 25.8502 21.7113C26.3928 18.9303 26.3897 16.0704 25.8409 13.2906ZM15.4077 20.8524V14.1472L20.8673 17.4998C19.0275 18.6304 17.2406 19.731 15.4077 20.8524Z" fill="currentColor"></path>
  </symbol>
</svg>